<svg width="684" height="153" viewBox="0 0 684 153" fill="none" xmlns="http://www.w3.org/2000/svg">
<path d="M36.247 24.564C35.9343 27.7353 35.778 30.594 35.778 33.14C35.778 35.3733 35.845 37.2047 35.979 38.634H34.438C34.0807 35.1947 33.634 32.6487 33.098 30.996C32.562 29.2987 31.624 28.0703 30.284 27.311C28.944 26.507 26.8893 26.105 24.12 26.105H19.899C18.291 26.105 17.1073 26.239 16.348 26.507C15.6333 26.7303 15.142 27.2217 14.874 27.981C14.606 28.7403 14.472 29.9687 14.472 31.666V48.148H19.363C20.9263 48.148 22.1323 47.7907 22.981 47.076C23.8297 46.3167 24.388 45.4457 24.656 44.463C24.9687 43.4357 25.2143 42.1627 25.393 40.644L25.594 39.304H27.135C27.001 41.18 26.934 43.2793 26.934 45.602V48.818C26.934 51.096 27.068 54.2673 27.336 58.332H25.795C25.7503 58.0193 25.6163 56.9473 25.393 55.116C25.1697 53.24 24.5443 51.833 23.517 50.895C22.5343 49.957 21.1497 49.488 19.363 49.488H14.472V64.898C14.472 66.5953 14.6507 67.8237 15.008 68.583C15.3653 69.3423 15.9907 69.856 16.884 70.124C17.7773 70.392 19.229 70.5707 21.239 70.66V72C18.9163 71.866 15.6333 71.799 11.39 71.799C7.54867 71.799 4.69 71.866 2.814 72V70.66C4.422 70.5707 5.58333 70.392 6.298 70.124C7.05733 69.856 7.571 69.3423 7.839 68.583C8.107 67.8237 8.241 66.5953 8.241 64.898V31.666C8.241 29.9687 8.107 28.7403 7.839 27.981C7.571 27.2217 7.05733 26.708 6.298 26.44C5.58333 26.172 4.422 25.9933 2.814 25.904V24.564C7.19133 24.698 13.668 24.765 22.244 24.765C28.81 24.765 33.4777 24.698 36.247 24.564ZM80.6235 63.424C80.6235 65.97 80.7798 68.8287 81.0925 72C78.0552 71.866 72.9408 71.799 65.7495 71.799C57.1735 71.799 50.6968 71.866 46.3195 72V70.66C47.9275 70.5707 49.0888 70.392 49.8035 70.124C50.5628 69.856 51.0765 69.3423 51.3445 68.583C51.6125 67.8237 51.7465 66.5953 51.7465 64.898V31.666C51.7465 29.9687 51.6125 28.7403 51.3445 27.981C51.0765 27.2217 50.5628 26.708 49.8035 26.44C49.0888 26.172 47.9275 25.9933 46.3195 25.904V24.564C50.6968 24.698 57.1735 24.765 65.7495 24.765C72.3155 24.765 76.9832 24.698 79.7525 24.564C79.4398 27.512 79.2835 30.1473 79.2835 32.47C79.2835 34.212 79.3505 35.5967 79.4845 36.624H77.9435C77.6308 33.7207 77.2288 31.5767 76.7375 30.192C76.2462 28.7627 75.4198 27.7353 74.2585 27.11C73.0972 26.44 71.3328 26.105 68.9655 26.105H63.4045C61.7965 26.105 60.6128 26.239 59.8535 26.507C59.1388 26.7303 58.6475 27.2217 58.3795 27.981C58.1115 28.7403 57.9775 29.9687 57.9775 31.666V47.478H62.3995C63.9628 47.478 65.1688 47.1207 66.0175 46.406C66.8662 45.6467 67.4245 44.7757 67.6925 43.793C68.0052 42.7657 68.2508 41.4927 68.4295 39.974L68.6305 38.634H70.1715C70.0375 40.51 69.9705 42.6093 69.9705 44.932V48.148C69.9705 50.426 70.1045 53.5973 70.3725 57.662H68.8315C68.7868 57.3493 68.6528 56.2773 68.4295 54.446C68.2062 52.57 67.5808 51.163 66.5535 50.225C65.5708 49.287 64.1862 48.818 62.3995 48.818H57.9775V64.898C57.9775 66.5953 58.1115 67.8237 58.3795 68.583C58.6475 69.3423 59.1388 69.856 59.8535 70.124C60.6128 70.3473 61.7965 70.459 63.4045 70.459H68.2955C71.0648 70.459 73.1642 70.1017 74.5935 69.387C76.0675 68.6277 77.1395 67.444 77.8095 65.836C78.4795 64.1833 78.9708 61.7713 79.2835 58.6H80.8245C80.6905 59.806 80.6235 61.414 80.6235 63.424ZM109.593 25.904C107.985 25.9933 106.801 26.172 106.042 26.44C105.327 26.708 104.836 27.2217 104.568 27.981C104.3 28.7403 104.166 29.9687 104.166 31.666V64.898C104.166 66.5953 104.3 67.8237 104.568 68.583C104.836 69.3423 105.327 69.856 106.042 70.124C106.801 70.3473 107.985 70.459 109.593 70.459H114.484C117.253 70.459 119.352 70.0793 120.782 69.32C122.256 68.516 123.328 67.243 123.998 65.501C124.668 63.759 125.159 61.2353 125.472 57.93H127.013C126.879 59.3147 126.812 61.146 126.812 63.424C126.812 65.97 126.968 68.8287 127.281 72C124.243 71.866 119.129 71.799 111.938 71.799C103.362 71.799 96.885 71.866 92.5076 72V70.66C94.1156 70.5707 95.277 70.392 95.9916 70.124C96.751 69.856 97.2646 69.3423 97.5326 68.583C97.8006 67.8237 97.9346 66.5953 97.9346 64.898V31.666C97.9346 29.9687 97.8006 28.7403 97.5326 27.981C97.2646 27.2217 96.751 26.708 95.9916 26.44C95.277 26.172 94.1156 25.9933 92.5076 25.904V24.564C94.3836 24.698 97.2423 24.765 101.084 24.765C104.657 24.765 107.493 24.698 109.593 24.564V25.904ZM154.341 25.904C152.733 25.9933 151.55 26.172 150.79 26.44C150.076 26.708 149.584 27.2217 149.316 27.981C149.048 28.7403 148.914 29.9687 148.914 31.666V64.898C148.914 66.5953 149.048 67.8237 149.316 68.583C149.584 69.3423 150.076 69.856 150.79 70.124C151.55 70.392 152.733 70.5707 154.341 70.66V72C152.287 71.866 149.45 71.799 145.832 71.799C141.991 71.799 139.132 71.866 137.256 72V70.66C138.864 70.5707 140.026 70.392 140.74 70.124C141.5 69.856 142.013 69.3423 142.281 68.583C142.549 67.8237 142.683 66.5953 142.683 64.898V31.666C142.683 29.9687 142.549 28.7403 142.281 27.981C142.013 27.2217 141.5 26.708 140.74 26.44C140.026 26.172 138.864 25.9933 137.256 25.904V24.564C139.132 24.698 141.991 24.765 145.832 24.765C149.406 24.765 152.242 24.698 154.341 24.564V25.904ZM186.84 23.626C189.52 23.626 191.798 24.0057 193.674 24.765C195.55 25.5243 197.381 26.5963 199.168 27.981C199.659 28.383 200.084 28.584 200.441 28.584C201.334 28.584 201.915 27.244 202.183 24.564H203.724C203.545 27.4673 203.456 32.604 203.456 39.974H201.915C201.424 37.0707 200.977 34.9937 200.575 33.743C200.173 32.4477 199.503 31.2193 198.565 30.058C197.225 28.316 195.505 27.0207 193.406 26.172C191.351 25.2787 189.118 24.832 186.706 24.832C183.803 24.832 181.257 25.7923 179.068 27.713C176.924 29.6337 175.249 32.3807 174.043 35.954C172.837 39.4827 172.234 43.6367 172.234 48.416C172.234 53.2847 172.882 57.461 174.177 60.945C175.472 64.429 177.259 67.0867 179.537 68.918C181.86 70.7047 184.473 71.598 187.376 71.598C189.609 71.598 191.776 71.1737 193.875 70.325C195.974 69.4763 197.627 68.2033 198.833 66.506C199.726 65.2553 200.374 63.9153 200.776 62.486C201.178 61.0567 201.558 58.868 201.915 55.92H203.456C203.456 63.6027 203.545 68.9627 203.724 72H202.183C202.049 70.5707 201.848 69.5657 201.58 68.985C201.357 68.3597 201.022 68.047 200.575 68.047C200.218 68.047 199.749 68.2257 199.168 68.583C197.158 70.0123 195.237 71.1067 193.406 71.866C191.575 72.5807 189.364 72.938 186.773 72.938C182.53 72.938 178.8 71.9777 175.584 70.057C172.413 68.1363 169.934 65.367 168.147 61.749C166.405 58.0863 165.534 53.7313 165.534 48.684C165.534 43.7707 166.427 39.4157 168.214 35.619C170.045 31.8223 172.569 28.8743 175.785 26.775C179.046 24.6757 182.731 23.626 186.84 23.626ZM233.37 25.904C231.762 25.9933 230.578 26.172 229.819 26.44C229.104 26.708 228.613 27.2217 228.345 27.981C228.077 28.7403 227.943 29.9687 227.943 31.666V64.898C227.943 66.5953 228.077 67.8237 228.345 68.583C228.613 69.3423 229.104 69.856 229.819 70.124C230.578 70.392 231.762 70.5707 233.37 70.66V72C231.315 71.866 228.479 71.799 224.861 71.799C221.02 71.799 218.161 71.866 216.285 72V70.66C217.893 70.5707 219.054 70.392 219.769 70.124C220.528 69.856 221.042 69.3423 221.31 68.583C221.578 67.8237 221.712 66.5953 221.712 64.898V31.666C221.712 29.9687 221.578 28.7403 221.31 27.981C221.042 27.2217 220.528 26.708 219.769 26.44C219.054 26.172 217.893 25.9933 216.285 25.904V24.564C218.161 24.698 221.02 24.765 224.861 24.765C228.434 24.765 231.271 24.698 233.37 24.564V25.904ZM281.199 24.564C280.886 27.7353 280.73 30.594 280.73 33.14C280.73 35.3733 280.797 37.2047 280.931 38.634H279.39C279.033 35.1947 278.586 32.6487 278.05 30.996C277.514 29.2987 276.576 28.0703 275.236 27.311C273.896 26.507 271.841 26.105 269.072 26.105H265.454V64.228C265.454 66.104 265.633 67.4663 265.99 68.315C266.347 69.1637 266.973 69.7443 267.866 70.057C268.759 70.3697 270.211 70.5707 272.221 70.66V72C269.898 71.866 266.615 71.799 262.372 71.799C257.905 71.799 254.6 71.866 252.456 72V70.66C254.466 70.5707 255.918 70.3697 256.811 70.057C257.704 69.7443 258.33 69.1637 258.687 68.315C259.044 67.4663 259.223 66.104 259.223 64.228V26.105H255.605C252.836 26.105 250.781 26.507 249.441 27.311C248.101 28.0703 247.163 29.2987 246.627 30.996C246.091 32.6487 245.644 35.1947 245.287 38.634H243.746C243.88 37.2047 243.947 35.3733 243.947 33.14C243.947 30.594 243.791 27.7353 243.478 24.564C247.185 24.698 253.483 24.765 262.372 24.765C271.216 24.765 277.492 24.698 281.199 24.564ZM322.879 24.765C324.889 24.765 326.564 24.698 327.904 24.564V25.904C327.011 26.1273 326.14 26.708 325.291 27.646C324.443 28.5393 323.527 29.9463 322.544 31.867L312.025 52.704V64.898C312.025 66.5953 312.159 67.8237 312.427 68.583C312.695 69.3423 313.187 69.856 313.901 70.124C314.661 70.392 315.844 70.5707 317.452 70.66V72C315.398 71.866 312.561 71.799 308.943 71.799C305.102 71.799 302.243 71.866 300.367 72V70.66C301.975 70.5707 303.137 70.392 303.851 70.124C304.611 69.856 305.124 69.3423 305.392 68.583C305.66 67.8237 305.794 66.5953 305.794 64.898V54.848L292.193 29.723C291.389 28.249 290.675 27.2663 290.049 26.775C289.469 26.239 288.888 25.971 288.307 25.971V24.564C290.049 24.698 292.015 24.765 294.203 24.765C298.536 24.765 301.663 24.698 303.583 24.564V25.971C300.457 25.971 298.893 26.8197 298.893 28.517C298.893 29.187 299.117 29.9687 299.563 30.862L310.685 52.235L319.261 35.217C320.467 32.8497 321.07 30.929 321.07 29.455C321.07 28.2043 320.579 27.311 319.596 26.775C318.614 26.239 317.14 25.9487 315.174 25.904V24.564C317.72 24.698 320.289 24.765 322.879 24.765ZM389.586 24.564C389.273 27.7353 389.117 30.594 389.117 33.14C389.117 35.3733 389.184 37.2047 389.318 38.634H387.777C387.419 35.1947 386.973 32.6487 386.437 30.996C385.901 29.2987 384.963 28.0703 383.623 27.311C382.283 26.507 380.228 26.105 377.459 26.105H373.238C371.63 26.105 370.446 26.239 369.687 26.507C368.972 26.7303 368.481 27.2217 368.213 27.981C367.945 28.7403 367.811 29.9687 367.811 31.666V48.148H372.702C374.265 48.148 375.471 47.7907 376.32 47.076C377.168 46.3167 377.727 45.4457 377.995 44.463C378.307 43.4357 378.553 42.1627 378.732 40.644L378.933 39.304H380.474C380.34 41.18 380.273 43.2793 380.273 45.602V48.818C380.273 51.096 380.407 54.2673 380.675 58.332H379.134C379.089 58.0193 378.955 56.9473 378.732 55.116C378.508 53.24 377.883 51.833 376.856 50.895C375.873 49.957 374.488 49.488 372.702 49.488H367.811V64.898C367.811 66.5953 367.989 67.8237 368.347 68.583C368.704 69.3423 369.329 69.856 370.223 70.124C371.116 70.392 372.568 70.5707 374.578 70.66V72C372.255 71.866 368.972 71.799 364.729 71.799C360.887 71.799 358.029 71.866 356.153 72V70.66C357.761 70.5707 358.922 70.392 359.637 70.124C360.396 69.856 360.91 69.3423 361.178 68.583C361.446 67.8237 361.58 66.5953 361.58 64.898V31.666C361.58 29.9687 361.446 28.7403 361.178 27.981C360.91 27.2217 360.396 26.708 359.637 26.44C358.922 26.172 357.761 25.9933 356.153 25.904V24.564C360.53 24.698 367.007 24.765 375.583 24.765C382.149 24.765 386.816 24.698 389.586 24.564ZM421.047 23.626C425.29 23.626 428.998 24.5863 432.169 26.507C435.385 28.4277 437.864 31.2193 439.606 34.882C441.393 38.5 442.286 42.8327 442.286 47.88C442.286 52.7933 441.37 57.1483 439.539 60.945C437.752 64.7417 435.229 67.6897 431.968 69.789C428.752 71.8883 425.089 72.938 420.98 72.938C416.737 72.938 413.007 71.9777 409.791 70.057C406.62 68.1363 404.141 65.367 402.354 61.749C400.612 58.0863 399.741 53.7313 399.741 48.684C399.741 43.7707 400.634 39.4157 402.421 35.619C404.252 31.8223 406.776 28.8743 409.992 26.775C413.253 24.6757 416.938 23.626 421.047 23.626ZM420.779 24.832C417.92 24.832 415.397 25.837 413.208 27.847C411.064 29.8123 409.389 32.5817 408.183 36.155C407.022 39.7283 406.441 43.8153 406.441 48.416C406.441 53.0613 407.089 57.1483 408.384 60.677C409.724 64.2057 411.511 66.9303 413.744 68.851C415.977 70.7717 418.479 71.732 421.248 71.732C424.107 71.732 426.608 70.7493 428.752 68.784C430.941 66.774 432.616 63.9823 433.777 60.409C434.983 56.8357 435.586 52.7487 435.586 48.148C435.586 43.5027 434.916 39.4157 433.576 35.887C432.281 32.3583 430.516 29.6337 428.283 27.713C426.05 25.7923 423.548 24.832 420.779 24.832ZM494.908 68.65C493.88 70.1687 492.853 71.263 491.826 71.933C490.798 72.603 489.436 72.938 487.739 72.938C485.907 72.938 484.389 72.402 483.183 71.33C482.021 70.258 481.15 68.382 480.57 65.702L479.096 59.002C478.56 56.6793 478.046 54.8927 477.555 53.642C477.108 52.3913 476.416 51.3863 475.478 50.627C474.54 49.8677 473.222 49.488 471.525 49.488H465.16V64.898C465.16 66.5953 465.294 67.8237 465.562 68.583C465.83 69.3423 466.321 69.856 467.036 70.124C467.795 70.392 468.979 70.5707 470.587 70.66V72C468.532 71.866 465.696 71.799 462.078 71.799C458.236 71.799 455.378 71.866 453.502 72V70.66C455.11 70.5707 456.271 70.392 456.986 70.124C457.745 69.856 458.259 69.3423 458.527 68.583C458.795 67.8237 458.929 66.5953 458.929 64.898V31.666C458.929 29.9687 458.795 28.7403 458.527 27.981C458.259 27.2217 457.745 26.708 456.986 26.44C456.271 26.172 455.11 25.9933 453.502 25.904V24.564C455.378 24.698 458.102 24.765 461.676 24.765L468.912 24.698C469.76 24.6533 470.721 24.631 471.793 24.631C476.974 24.631 480.949 25.7253 483.719 27.914C486.533 30.058 487.94 32.8497 487.94 36.289C487.94 38.031 487.515 39.7953 486.667 41.582C485.863 43.324 484.478 44.9097 482.513 46.339C480.592 47.7237 478.068 48.6617 474.942 49.153L475.746 49.287C478.694 49.7783 480.838 50.6717 482.178 51.967C483.518 53.2623 484.5 55.317 485.126 58.131L486.801 64.965C487.247 67.0197 487.716 68.449 488.208 69.253C488.699 70.057 489.369 70.459 490.218 70.459C490.977 70.459 491.602 70.258 492.094 69.856C492.63 69.454 493.233 68.8063 493.903 67.913L494.908 68.65ZM470.118 25.904C468.733 25.904 467.683 26.0603 466.969 26.373C466.299 26.6857 465.83 27.244 465.562 28.048C465.294 28.852 465.16 30.058 465.16 31.666V48.148H469.649C474.071 48.148 477.108 47.1653 478.761 45.2C480.413 43.2347 481.24 40.51 481.24 37.026C481.24 33.3633 480.369 30.594 478.627 28.718C476.885 26.842 474.048 25.904 470.118 25.904ZM516.645 23.827C518.61 23.827 520.151 24.0503 521.268 24.497C522.429 24.899 523.613 25.502 524.819 26.306C525.802 26.9313 526.561 27.244 527.097 27.244C527.499 27.244 527.812 27.0207 528.035 26.574C528.258 26.0827 528.437 25.3233 528.571 24.296H530.112C529.889 26.8867 529.777 31.4427 529.777 37.964H528.236C527.968 34.346 526.918 31.3087 525.087 28.852C523.3 26.3507 520.687 25.1 517.248 25.1C514.836 25.1 512.871 25.837 511.352 27.311C509.833 28.7403 509.074 30.594 509.074 32.872C509.074 34.5693 509.454 36.0433 510.213 37.294C511.017 38.5447 512.022 39.6167 513.228 40.51C514.434 41.4033 516.154 42.5423 518.387 43.927L520.33 45.133C523.144 46.875 525.355 48.416 526.963 49.756C528.616 51.0513 529.933 52.5477 530.916 54.245C531.899 55.9423 532.39 57.93 532.39 60.208C532.39 64.2727 531.05 67.4217 528.37 69.655C525.69 71.8437 522.295 72.938 518.186 72.938C516.042 72.938 514.278 72.7147 512.893 72.268C511.553 71.8213 510.258 71.2183 509.007 70.459C508.024 69.8337 507.265 69.521 506.729 69.521C506.327 69.521 506.014 69.7667 505.791 70.258C505.568 70.7047 505.389 71.4417 505.255 72.469H503.714C503.893 70.0123 503.982 64.6523 503.982 56.389H505.523C505.836 60.9003 506.952 64.563 508.873 67.377C510.794 70.191 513.742 71.598 517.717 71.598C520.129 71.598 522.184 70.861 523.881 69.387C525.578 67.8683 526.427 65.635 526.427 62.687C526.427 60.1857 525.578 58.064 523.881 56.322C522.228 54.58 519.593 52.6147 515.975 50.426C513.34 48.818 511.196 47.3887 509.543 46.138C507.935 44.8873 506.617 43.391 505.59 41.649C504.563 39.8623 504.049 37.7853 504.049 35.418C504.049 31.666 505.255 28.8073 507.667 26.842C510.079 24.832 513.072 23.827 516.645 23.827ZM575.406 24.765C577.416 24.765 579.091 24.698 580.431 24.564V25.904C579.538 26.1273 578.667 26.708 577.818 27.646C576.97 28.5393 576.054 29.9463 575.071 31.867L564.552 52.704V64.898C564.552 66.5953 564.686 67.8237 564.954 68.583C565.222 69.3423 565.714 69.856 566.428 70.124C567.188 70.392 568.371 70.5707 569.979 70.66V72C567.925 71.866 565.088 71.799 561.47 71.799C557.629 71.799 554.77 71.866 552.894 72V70.66C554.502 70.5707 555.664 70.392 556.378 70.124C557.138 69.856 557.651 69.3423 557.919 68.583C558.187 67.8237 558.321 66.5953 558.321 64.898V54.848L544.72 29.723C543.916 28.249 543.202 27.2663 542.576 26.775C541.996 26.239 541.415 25.971 540.834 25.971V24.564C542.576 24.698 544.542 24.765 546.73 24.765C551.063 24.765 554.19 24.698 556.11 24.564V25.971C552.984 25.971 551.42 26.8197 551.42 28.517C551.42 29.187 551.644 29.9687 552.09 30.862L563.212 52.235L571.788 35.217C572.994 32.8497 573.597 30.929 573.597 29.455C573.597 28.2043 573.106 27.311 572.123 26.775C571.141 26.239 569.667 25.9487 567.701 25.904V24.564C570.247 24.698 572.816 24.765 575.406 24.765ZM625.644 24.564C625.332 27.7353 625.175 30.594 625.175 33.14C625.175 35.3733 625.242 37.2047 625.376 38.634H623.835C623.478 35.1947 623.031 32.6487 622.495 30.996C621.959 29.2987 621.021 28.0703 619.681 27.311C618.341 26.507 616.287 26.105 613.517 26.105H609.899V64.228C609.899 66.104 610.078 67.4663 610.435 68.315C610.793 69.1637 611.418 69.7443 612.311 70.057C613.205 70.3697 614.656 70.5707 616.666 70.66V72C614.344 71.866 611.061 71.799 606.817 71.799C602.351 71.799 599.045 71.866 596.901 72V70.66C598.911 70.5707 600.363 70.3697 601.256 70.057C602.15 69.7443 602.775 69.1637 603.132 68.315C603.49 67.4663 603.668 66.104 603.668 64.228V26.105H600.05C597.281 26.105 595.226 26.507 593.886 27.311C592.546 28.0703 591.608 29.2987 591.072 30.996C590.536 32.6487 590.09 35.1947 589.732 38.634H588.191C588.325 37.2047 588.392 35.3733 588.392 33.14C588.392 30.594 588.236 27.7353 587.923 24.564C591.631 24.698 597.929 24.765 606.817 24.765C615.661 24.765 621.937 24.698 625.644 24.564ZM680.859 25.904C679.251 25.9933 678.067 26.172 677.308 26.44C676.593 26.708 676.102 27.2217 675.834 27.981C675.566 28.7403 675.432 29.9687 675.432 31.666V64.898C675.432 66.5953 675.566 67.8237 675.834 68.583C676.102 69.3423 676.593 69.856 677.308 70.124C678.067 70.392 679.251 70.5707 680.859 70.66V72C678.983 71.866 676.124 71.799 672.283 71.799C668.665 71.799 665.828 71.866 663.774 72V70.66C665.382 70.5707 666.543 70.392 667.258 70.124C668.017 69.856 668.531 69.3423 668.799 68.583C669.067 67.8237 669.201 66.5953 669.201 64.898V48.818H647.426V64.898C647.426 66.5953 647.56 67.8237 647.828 68.583C648.096 69.3423 648.587 69.856 649.302 70.124C650.061 70.392 651.245 70.5707 652.853 70.66V72C650.798 71.866 647.962 71.799 644.344 71.799C640.502 71.799 637.644 71.866 635.768 72V70.66C637.376 70.5707 638.537 70.392 639.252 70.124C640.011 69.856 640.525 69.3423 640.793 68.583C641.061 67.8237 641.195 66.5953 641.195 64.898V31.666C641.195 29.9687 641.061 28.7403 640.793 27.981C640.525 27.2217 640.011 26.708 639.252 26.44C638.537 26.172 637.376 25.9933 635.768 25.904V24.564C637.644 24.698 640.502 24.765 644.344 24.765C647.917 24.765 650.753 24.698 652.853 24.564V25.904C651.245 25.9933 650.061 26.172 649.302 26.44C648.587 26.708 648.096 27.2217 647.828 27.981C647.56 28.7403 647.426 29.9687 647.426 31.666V47.478H669.201V31.666C669.201 29.9687 669.067 28.7403 668.799 27.981C668.531 27.2217 668.017 26.708 667.258 26.44C666.543 26.172 665.382 25.9933 663.774 25.904V24.564C665.828 24.698 668.665 24.765 672.283 24.765C676.124 24.765 678.983 24.698 680.859 24.564V25.904Z" fill="black"/>
<path d="M32.6276 114.842C34.1876 114.842 35.5136 115.063 36.6056 115.505C37.6976 115.947 38.7636 116.571 39.8036 117.377C40.0896 117.611 40.3366 117.728 40.5446 117.728C41.0646 117.728 41.4026 116.948 41.5586 115.388H42.4556C42.3516 117.078 42.2996 120.068 42.2996 124.358H41.4026C41.1166 122.668 40.8566 121.459 40.6226 120.731C40.3886 119.977 39.9986 119.262 39.4526 118.586C38.6726 117.572 37.6716 116.818 36.4496 116.324C35.2536 115.804 33.9536 115.544 32.5496 115.544C30.8596 115.544 29.3776 116.103 28.1036 117.221C26.8556 118.339 25.8806 119.938 25.1786 122.018C24.4766 124.072 24.1256 126.49 24.1256 129.272C24.1256 132.106 24.5026 134.537 25.2566 136.565C26.0106 138.593 27.0506 140.14 28.3766 141.206C29.7286 142.246 31.2496 142.766 32.9396 142.766C34.2396 142.766 35.5006 142.519 36.7226 142.025C37.9446 141.531 38.9066 140.79 39.6086 139.802C40.1286 139.074 40.5056 138.294 40.7396 137.462C40.9736 136.63 41.1946 135.356 41.4026 133.64H42.2996C42.2996 138.112 42.3516 141.232 42.4556 143H41.5586C41.4806 142.168 41.3636 141.583 41.2076 141.245C41.0776 140.881 40.8826 140.699 40.6226 140.699C40.4146 140.699 40.1416 140.803 39.8036 141.011C38.6336 141.843 37.5156 142.48 36.4496 142.922C35.3836 143.338 34.0966 143.546 32.5886 143.546C30.1186 143.546 27.9476 142.987 26.0756 141.869C24.2296 140.751 22.7866 139.139 21.7466 137.033C20.7326 134.901 20.2256 132.366 20.2256 129.428C20.2256 126.568 20.7456 124.033 21.7856 121.823C22.8516 119.613 24.3206 117.897 26.1926 116.675C28.0906 115.453 30.2356 114.842 32.6276 114.842ZM76.0142 116.168C75.0782 116.22 74.3892 116.324 73.9472 116.48C73.5312 116.636 73.2452 116.935 73.0892 117.377C72.9332 117.819 72.8552 118.534 72.8552 119.522V138.866C72.8552 139.854 72.9332 140.569 73.0892 141.011C73.2452 141.453 73.5312 141.752 73.9472 141.908C74.3892 142.064 75.0782 142.168 76.0142 142.22V143C74.9222 142.922 73.2582 142.883 71.0222 142.883C68.9162 142.883 67.2652 142.922 66.0692 143V142.22C67.0052 142.168 67.6812 142.064 68.0972 141.908C68.5392 141.752 68.8382 141.453 68.9942 141.011C69.1502 140.569 69.2282 139.854 69.2282 138.866V129.506H56.5532V138.866C56.5532 139.854 56.6312 140.569 56.7872 141.011C56.9432 141.453 57.2292 141.752 57.6452 141.908C58.0872 142.064 58.7762 142.168 59.7122 142.22V143C58.5162 142.922 56.8652 142.883 54.7592 142.883C52.5232 142.883 50.8592 142.922 49.7672 143V142.22C50.7032 142.168 51.3792 142.064 51.7952 141.908C52.2372 141.752 52.5362 141.453 52.6922 141.011C52.8482 140.569 52.9262 139.854 52.9262 138.866V119.522C52.9262 118.534 52.8482 117.819 52.6922 117.377C52.5362 116.935 52.2372 116.636 51.7952 116.48C51.3792 116.324 50.7032 116.22 49.7672 116.168V115.388C50.8592 115.466 52.5232 115.505 54.7592 115.505C56.8392 115.505 58.4902 115.466 59.7122 115.388V116.168C58.7762 116.22 58.0872 116.324 57.6452 116.48C57.2292 116.636 56.9432 116.935 56.7872 117.377C56.6312 117.819 56.5532 118.534 56.5532 119.522V128.726H69.2282V119.522C69.2282 118.534 69.1502 117.819 68.9942 117.377C68.8382 116.935 68.5392 116.636 68.0972 116.48C67.6812 116.324 67.0052 116.22 66.0692 116.168V115.388C67.2652 115.466 68.9162 115.505 71.0222 115.505C73.2582 115.505 74.9222 115.466 76.0142 115.388V116.168ZM102.879 139.724C103.503 141.336 104.4 142.168 105.57 142.22V143C104.53 142.922 103.139 142.883 101.397 142.883C99.1608 142.883 97.4968 142.922 96.4048 143V142.22C97.3928 142.168 98.0948 142.051 98.5108 141.869C98.9528 141.661 99.1738 141.297 99.1738 140.777C99.1738 140.335 99.0178 139.724 98.7058 138.944L96.3268 132.548H86.8888L85.2898 136.682C84.7698 138.086 84.5098 139.152 84.5098 139.88C84.5098 140.686 84.7828 141.271 85.3288 141.635C85.9008 141.999 86.7588 142.194 87.9028 142.22V143C86.4208 142.922 84.9258 142.883 83.4178 142.883C82.2478 142.883 81.2728 142.922 80.4928 143V142.22C81.7928 141.908 82.8198 140.777 83.5738 138.827L92.7388 115.193H93.3628L102.879 139.724ZM96.0148 131.768L91.6468 120.107L87.2008 131.768H96.0148ZM133.82 116.168C132.91 116.22 132.234 116.363 131.792 116.597C131.35 116.805 131.051 117.169 130.895 117.689C130.739 118.183 130.661 118.924 130.661 119.912V143.195H129.764L113.384 117.884V138.476C113.384 139.49 113.462 140.244 113.618 140.738C113.8 141.232 114.138 141.596 114.632 141.83C115.126 142.038 115.893 142.168 116.933 142.22V143C115.997 142.922 114.671 142.883 112.955 142.883C111.395 142.883 110.186 142.922 109.328 143V142.22C110.238 142.168 110.914 142.038 111.356 141.83C111.798 141.596 112.097 141.232 112.253 140.738C112.409 140.218 112.487 139.464 112.487 138.476V119.522C112.487 118.534 112.409 117.819 112.253 117.377C112.097 116.935 111.798 116.636 111.356 116.48C110.94 116.324 110.264 116.22 109.328 116.168V115.388C110.186 115.466 111.395 115.505 112.955 115.505C114.125 115.505 115.139 115.466 115.997 115.388L129.764 136.604V119.912C129.764 118.898 129.673 118.144 129.491 117.65C129.335 117.156 129.01 116.805 128.516 116.597C128.022 116.363 127.255 116.22 126.215 116.168V115.388C127.151 115.466 128.477 115.505 130.193 115.505C131.753 115.505 132.962 115.466 133.82 115.388V116.168ZM152.743 114.842C154.277 114.842 155.538 115.063 156.526 115.505C157.514 115.921 158.593 116.545 159.763 117.377C160.101 117.637 160.361 117.767 160.543 117.767C161.037 117.767 161.362 116.974 161.518 115.388H162.415C162.311 117.078 162.259 120.068 162.259 124.358H161.362C161.128 122.98 160.881 121.849 160.621 120.965C160.361 120.055 159.958 119.262 159.412 118.586C158.658 117.65 157.67 116.909 156.448 116.363C155.252 115.817 153.991 115.544 152.665 115.544C150.949 115.544 149.441 116.103 148.141 117.221C146.841 118.339 145.84 119.938 145.138 122.018C144.436 124.072 144.085 126.477 144.085 129.233C144.085 133.913 144.826 137.345 146.308 139.529C147.816 141.687 150.169 142.766 153.367 142.766C154.927 142.766 156.279 142.363 157.423 141.557C157.891 141.245 158.19 140.946 158.32 140.66C158.476 140.348 158.554 139.932 158.554 139.412V135.668C158.554 134.576 158.45 133.783 158.242 133.289C158.034 132.795 157.67 132.457 157.15 132.275C156.63 132.093 155.785 131.976 154.615 131.924V131.144C155.967 131.222 157.8 131.261 160.114 131.261C161.882 131.261 163.234 131.222 164.17 131.144V131.924C163.572 131.976 163.13 132.08 162.844 132.236C162.584 132.392 162.402 132.691 162.298 133.133C162.22 133.575 162.181 134.29 162.181 135.278V143H161.401C161.375 142.48 161.271 141.986 161.089 141.518C160.907 141.024 160.66 140.777 160.348 140.777C160.192 140.777 160.036 140.816 159.88 140.894C159.724 140.972 159.451 141.154 159.061 141.44C158.151 142.142 157.202 142.662 156.214 143C155.252 143.364 154.173 143.546 152.977 143.546C150.299 143.546 147.998 143 146.074 141.908C144.176 140.79 142.72 139.191 141.706 137.111C140.692 135.031 140.185 132.548 140.185 129.662C140.185 126.698 140.718 124.098 141.784 121.862C142.876 119.6 144.371 117.871 146.269 116.675C148.167 115.453 150.325 114.842 152.743 114.842ZM190.227 138.008C190.227 139.49 190.318 141.154 190.5 143C188.732 142.922 185.755 142.883 181.569 142.883C176.577 142.883 172.807 142.922 170.259 143V142.22C171.195 142.168 171.871 142.064 172.287 141.908C172.729 141.752 173.028 141.453 173.184 141.011C173.34 140.569 173.418 139.854 173.418 138.866V119.522C173.418 118.534 173.34 117.819 173.184 117.377C173.028 116.935 172.729 116.636 172.287 116.48C171.871 116.324 171.195 116.22 170.259 116.168V115.388C172.807 115.466 176.577 115.505 181.569 115.505C185.391 115.505 188.108 115.466 189.72 115.388C189.538 117.104 189.447 118.638 189.447 119.99C189.447 121.004 189.486 121.81 189.564 122.408H188.667C188.485 120.718 188.251 119.47 187.965 118.664C187.679 117.832 187.198 117.234 186.522 116.87C185.846 116.48 184.819 116.285 183.441 116.285H180.204C179.268 116.285 178.579 116.363 178.137 116.519C177.721 116.649 177.435 116.935 177.279 117.377C177.123 117.819 177.045 118.534 177.045 119.522V128.726H179.619C180.529 128.726 181.231 128.518 181.725 128.102C182.219 127.66 182.544 127.153 182.7 126.581C182.882 125.983 183.025 125.242 183.129 124.358L183.246 123.578H184.143C184.065 124.67 184.026 125.892 184.026 127.244V129.116C184.026 130.442 184.104 132.288 184.26 134.654H183.363C183.337 134.472 183.259 133.848 183.129 132.782C182.999 131.69 182.635 130.871 182.037 130.325C181.465 129.779 180.659 129.506 179.619 129.506H177.045V138.866C177.045 139.854 177.123 140.569 177.279 141.011C177.435 141.453 177.721 141.752 178.137 141.908C178.579 142.038 179.268 142.103 180.204 142.103H183.051C184.663 142.103 185.885 141.895 186.717 141.479C187.575 141.037 188.199 140.348 188.589 139.412C188.979 138.45 189.265 137.046 189.447 135.2H190.344C190.266 135.902 190.227 136.838 190.227 138.008ZM220.506 128.57H229.554V129.74H220.506V138.905H219.102V129.74H210.015V128.57H219.102V119.366H220.506V128.57ZM269.316 115.388C269.134 117.234 269.043 118.898 269.043 120.38C269.043 121.68 269.082 122.746 269.16 123.578H268.263C268.055 121.576 267.795 120.094 267.483 119.132C267.171 118.144 266.625 117.429 265.845 116.987C265.065 116.519 263.869 116.285 262.257 116.285H260.151V138.476C260.151 139.568 260.255 140.361 260.463 140.855C260.671 141.349 261.035 141.687 261.555 141.869C262.075 142.051 262.92 142.168 264.09 142.22V143C262.738 142.922 260.827 142.883 258.357 142.883C255.757 142.883 253.833 142.922 252.585 143V142.22C253.755 142.168 254.6 142.051 255.12 141.869C255.64 141.687 256.004 141.349 256.212 140.855C256.42 140.361 256.524 139.568 256.524 138.476V116.285H254.418C252.806 116.285 251.61 116.519 250.83 116.987C250.05 117.429 249.504 118.144 249.192 119.132C248.88 120.094 248.62 121.576 248.412 123.578H247.515C247.593 122.746 247.632 121.68 247.632 120.38C247.632 118.898 247.541 117.234 247.359 115.388C249.517 115.466 253.183 115.505 258.357 115.505C263.505 115.505 267.158 115.466 269.316 115.388ZM299.311 141.05C298.713 141.934 298.115 142.571 297.517 142.961C296.919 143.351 296.126 143.546 295.138 143.546C294.072 143.546 293.188 143.234 292.486 142.61C291.81 141.986 291.303 140.894 290.965 139.334L290.107 135.434C289.795 134.082 289.496 133.042 289.21 132.314C288.95 131.586 288.547 131.001 288.001 130.559C287.455 130.117 286.688 129.896 285.7 129.896H281.995V138.866C281.995 139.854 282.073 140.569 282.229 141.011C282.385 141.453 282.671 141.752 283.087 141.908C283.529 142.064 284.218 142.168 285.154 142.22V143C283.958 142.922 282.307 142.883 280.201 142.883C277.965 142.883 276.301 142.922 275.209 143V142.22C276.145 142.168 276.821 142.064 277.237 141.908C277.679 141.752 277.978 141.453 278.134 141.011C278.29 140.569 278.368 139.854 278.368 138.866V119.522C278.368 118.534 278.29 117.819 278.134 117.377C277.978 116.935 277.679 116.636 277.237 116.48C276.821 116.324 276.145 116.22 275.209 116.168V115.388C276.301 115.466 277.887 115.505 279.967 115.505L284.179 115.466C284.673 115.44 285.232 115.427 285.856 115.427C288.872 115.427 291.186 116.064 292.798 117.338C294.436 118.586 295.255 120.211 295.255 122.213C295.255 123.227 295.008 124.254 294.514 125.294C294.046 126.308 293.24 127.231 292.096 128.063C290.978 128.869 289.509 129.415 287.689 129.701L288.157 129.779C289.873 130.065 291.121 130.585 291.901 131.339C292.681 132.093 293.253 133.289 293.617 134.927L294.592 138.905C294.852 140.101 295.125 140.933 295.411 141.401C295.697 141.869 296.087 142.103 296.581 142.103C297.023 142.103 297.387 141.986 297.673 141.752C297.985 141.518 298.336 141.141 298.726 140.621L299.311 141.05ZM284.881 116.168C284.075 116.168 283.464 116.259 283.048 116.441C282.658 116.623 282.385 116.948 282.229 117.416C282.073 117.884 281.995 118.586 281.995 119.522V129.116H284.608C287.182 129.116 288.95 128.544 289.912 127.4C290.874 126.256 291.355 124.67 291.355 122.642C291.355 120.51 290.848 118.898 289.834 117.806C288.82 116.714 287.169 116.168 284.881 116.168ZM324.093 139.724C324.717 141.336 325.614 142.168 326.784 142.22V143C325.744 142.922 324.353 142.883 322.611 142.883C320.375 142.883 318.711 142.922 317.619 143V142.22C318.607 142.168 319.309 142.051 319.725 141.869C320.167 141.661 320.388 141.297 320.388 140.777C320.388 140.335 320.232 139.724 319.92 138.944L317.541 132.548H308.103L306.504 136.682C305.984 138.086 305.724 139.152 305.724 139.88C305.724 140.686 305.997 141.271 306.543 141.635C307.115 141.999 307.973 142.194 309.117 142.22V143C307.635 142.922 306.14 142.883 304.632 142.883C303.462 142.883 302.487 142.922 301.707 143V142.22C303.007 141.908 304.034 140.777 304.788 138.827L313.953 115.193H314.577L324.093 139.724ZM317.229 131.768L312.861 120.107L308.415 131.768H317.229ZM355.033 116.168C354.123 116.22 353.447 116.363 353.005 116.597C352.563 116.805 352.264 117.169 352.108 117.689C351.952 118.183 351.874 118.924 351.874 119.912V143.195H350.977L334.597 117.884V138.476C334.597 139.49 334.675 140.244 334.831 140.738C335.013 141.232 335.351 141.596 335.845 141.83C336.339 142.038 337.106 142.168 338.146 142.22V143C337.21 142.922 335.884 142.883 334.168 142.883C332.608 142.883 331.399 142.922 330.541 143V142.22C331.451 142.168 332.127 142.038 332.569 141.83C333.011 141.596 333.31 141.232 333.466 140.738C333.622 140.218 333.7 139.464 333.7 138.476V119.522C333.7 118.534 333.622 117.819 333.466 117.377C333.31 116.935 333.011 116.636 332.569 116.48C332.153 116.324 331.477 116.22 330.541 116.168V115.388C331.399 115.466 332.608 115.505 334.168 115.505C335.338 115.505 336.352 115.466 337.21 115.388L350.977 136.604V119.912C350.977 118.898 350.886 118.144 350.704 117.65C350.548 117.156 350.223 116.805 349.729 116.597C349.235 116.363 348.468 116.22 347.428 116.168V115.388C348.364 115.466 349.69 115.505 351.406 115.505C352.966 115.505 354.175 115.466 355.033 115.388V116.168ZM369.543 114.959C370.687 114.959 371.584 115.089 372.234 115.349C372.91 115.583 373.599 115.934 374.301 116.402C374.873 116.766 375.315 116.948 375.627 116.948C375.861 116.948 376.043 116.818 376.173 116.558C376.303 116.272 376.407 115.83 376.485 115.232H377.382C377.252 116.74 377.187 119.392 377.187 123.188H376.29C376.134 121.082 375.523 119.314 374.457 117.884C373.417 116.428 371.896 115.7 369.894 115.7C368.49 115.7 367.346 116.129 366.462 116.987C365.578 117.819 365.136 118.898 365.136 120.224C365.136 121.212 365.357 122.07 365.799 122.798C366.267 123.526 366.852 124.15 367.554 124.67C368.256 125.19 369.257 125.853 370.557 126.659L371.688 127.361C373.326 128.375 374.613 129.272 375.549 130.052C376.511 130.806 377.278 131.677 377.85 132.665C378.422 133.653 378.708 134.81 378.708 136.136C378.708 138.502 377.928 140.335 376.368 141.635C374.808 142.909 372.832 143.546 370.44 143.546C369.192 143.546 368.165 143.416 367.359 143.156C366.579 142.896 365.825 142.545 365.097 142.103C364.525 141.739 364.083 141.557 363.771 141.557C363.537 141.557 363.355 141.7 363.225 141.986C363.095 142.246 362.991 142.675 362.913 143.273H362.016C362.12 141.843 362.172 138.723 362.172 133.913H363.069C363.251 136.539 363.901 138.671 365.019 140.309C366.137 141.947 367.853 142.766 370.167 142.766C371.571 142.766 372.767 142.337 373.755 141.479C374.743 140.595 375.237 139.295 375.237 137.579C375.237 136.123 374.743 134.888 373.755 133.874C372.793 132.86 371.259 131.716 369.153 130.442C367.619 129.506 366.371 128.674 365.409 127.946C364.473 127.218 363.706 126.347 363.108 125.333C362.51 124.293 362.211 123.084 362.211 121.706C362.211 119.522 362.913 117.858 364.317 116.714C365.721 115.544 367.463 114.959 369.543 114.959ZM395.324 116.168C394.388 116.22 393.699 116.324 393.257 116.48C392.841 116.636 392.555 116.935 392.399 117.377C392.243 117.819 392.165 118.534 392.165 119.522V138.866C392.165 139.854 392.243 140.569 392.399 141.011C392.555 141.453 392.841 141.752 393.257 141.908C393.699 142.064 394.388 142.168 395.324 142.22V143C394.128 142.922 392.477 142.883 390.371 142.883C388.135 142.883 386.471 142.922 385.379 143V142.22C386.315 142.168 386.991 142.064 387.407 141.908C387.849 141.752 388.148 141.453 388.304 141.011C388.46 140.569 388.538 139.854 388.538 138.866V119.522C388.538 118.534 388.46 117.819 388.304 117.377C388.148 116.935 387.849 116.636 387.407 116.48C386.991 116.324 386.315 116.22 385.379 116.168V115.388C386.471 115.466 388.135 115.505 390.371 115.505C392.451 115.505 394.102 115.466 395.324 115.388V116.168ZM423.165 115.388C422.983 117.234 422.892 118.898 422.892 120.38C422.892 121.68 422.931 122.746 423.009 123.578H422.112C421.904 121.576 421.644 120.094 421.332 119.132C421.02 118.144 420.474 117.429 419.694 116.987C418.914 116.519 417.718 116.285 416.106 116.285H414V138.476C414 139.568 414.104 140.361 414.312 140.855C414.52 141.349 414.884 141.687 415.404 141.869C415.924 142.051 416.769 142.168 417.939 142.22V143C416.587 142.922 414.676 142.883 412.206 142.883C409.606 142.883 407.682 142.922 406.434 143V142.22C407.604 142.168 408.449 142.051 408.969 141.869C409.489 141.687 409.853 141.349 410.061 140.855C410.269 140.361 410.373 139.568 410.373 138.476V116.285H408.267C406.655 116.285 405.459 116.519 404.679 116.987C403.899 117.429 403.353 118.144 403.041 119.132C402.729 120.094 402.469 121.576 402.261 123.578H401.364C401.442 122.746 401.481 121.68 401.481 120.38C401.481 118.898 401.39 117.234 401.208 115.388C403.366 115.466 407.032 115.505 412.206 115.505C417.354 115.505 421.007 115.466 423.165 115.388ZM439.002 116.168C438.066 116.22 437.377 116.324 436.935 116.48C436.519 116.636 436.233 116.935 436.077 117.377C435.921 117.819 435.843 118.534 435.843 119.522V138.866C435.843 139.854 435.921 140.569 436.077 141.011C436.233 141.453 436.519 141.752 436.935 141.908C437.377 142.064 438.066 142.168 439.002 142.22V143C437.806 142.922 436.155 142.883 434.049 142.883C431.813 142.883 430.149 142.922 429.057 143V142.22C429.993 142.168 430.669 142.064 431.085 141.908C431.527 141.752 431.826 141.453 431.982 141.011C432.138 140.569 432.216 139.854 432.216 138.866V119.522C432.216 118.534 432.138 117.819 431.982 117.377C431.826 116.935 431.527 116.636 431.085 116.48C430.669 116.324 429.993 116.22 429.057 116.168V115.388C430.149 115.466 431.813 115.505 434.049 115.505C436.129 115.505 437.78 115.466 439.002 115.388V116.168ZM457.92 114.842C460.39 114.842 462.548 115.401 464.394 116.519C466.266 117.637 467.709 119.262 468.723 121.394C469.763 123.5 470.283 126.022 470.283 128.96C470.283 131.82 469.75 134.355 468.684 136.565C467.644 138.775 466.175 140.491 464.277 141.713C462.405 142.935 460.273 143.546 457.881 143.546C455.411 143.546 453.24 142.987 451.368 141.869C449.522 140.751 448.079 139.139 447.039 137.033C446.025 134.901 445.518 132.366 445.518 129.428C445.518 126.568 446.038 124.033 447.078 121.823C448.144 119.613 449.613 117.897 451.485 116.675C453.383 115.453 455.528 114.842 457.92 114.842ZM457.764 115.544C456.1 115.544 454.631 116.129 453.357 117.299C452.109 118.443 451.134 120.055 450.432 122.135C449.756 124.215 449.418 126.594 449.418 129.272C449.418 131.976 449.795 134.355 450.549 136.409C451.329 138.463 452.369 140.049 453.669 141.167C454.969 142.285 456.425 142.844 458.037 142.844C459.701 142.844 461.157 142.272 462.405 141.128C463.679 139.958 464.654 138.333 465.33 136.253C466.032 134.173 466.383 131.794 466.383 129.116C466.383 126.412 465.993 124.033 465.213 121.979C464.459 119.925 463.432 118.339 462.132 117.221C460.832 116.103 459.376 115.544 457.764 115.544ZM501.303 116.168C500.393 116.22 499.717 116.363 499.275 116.597C498.833 116.805 498.534 117.169 498.378 117.689C498.222 118.183 498.144 118.924 498.144 119.912V143.195H497.247L480.867 117.884V138.476C480.867 139.49 480.945 140.244 481.101 140.738C481.283 141.232 481.621 141.596 482.115 141.83C482.609 142.038 483.376 142.168 484.416 142.22V143C483.48 142.922 482.154 142.883 480.438 142.883C478.878 142.883 477.669 142.922 476.811 143V142.22C477.721 142.168 478.397 142.038 478.839 141.83C479.281 141.596 479.58 141.232 479.736 140.738C479.892 140.218 479.97 139.464 479.97 138.476V119.522C479.97 118.534 479.892 117.819 479.736 117.377C479.58 116.935 479.281 116.636 478.839 116.48C478.423 116.324 477.747 116.22 476.811 116.168V115.388C477.669 115.466 478.878 115.505 480.438 115.505C481.608 115.505 482.622 115.466 483.48 115.388L497.247 136.604V119.912C497.247 118.898 497.156 118.144 496.974 117.65C496.818 117.156 496.493 116.805 495.999 116.597C495.505 116.363 494.738 116.22 493.698 116.168V115.388C494.634 115.466 495.96 115.505 497.676 115.505C499.236 115.505 500.445 115.466 501.303 115.388V116.168ZM533.13 114.842C534.69 114.842 536.016 115.063 537.108 115.505C538.2 115.947 539.266 116.571 540.306 117.377C540.592 117.611 540.839 117.728 541.047 117.728C541.567 117.728 541.905 116.948 542.061 115.388H542.958C542.854 117.078 542.802 120.068 542.802 124.358H541.905C541.619 122.668 541.359 121.459 541.125 120.731C540.891 119.977 540.501 119.262 539.955 118.586C539.175 117.572 538.174 116.818 536.952 116.324C535.756 115.804 534.456 115.544 533.052 115.544C531.362 115.544 529.88 116.103 528.606 117.221C527.358 118.339 526.383 119.938 525.681 122.018C524.979 124.072 524.628 126.49 524.628 129.272C524.628 132.106 525.005 134.537 525.759 136.565C526.513 138.593 527.553 140.14 528.879 141.206C530.231 142.246 531.752 142.766 533.442 142.766C534.742 142.766 536.003 142.519 537.225 142.025C538.447 141.531 539.409 140.79 540.111 139.802C540.631 139.074 541.008 138.294 541.242 137.462C541.476 136.63 541.697 135.356 541.905 133.64H542.802C542.802 138.112 542.854 141.232 542.958 143H542.061C541.983 142.168 541.866 141.583 541.71 141.245C541.58 140.881 541.385 140.699 541.125 140.699C540.917 140.699 540.644 140.803 540.306 141.011C539.136 141.843 538.018 142.48 536.952 142.922C535.886 143.338 534.599 143.546 533.091 143.546C530.621 143.546 528.45 142.987 526.578 141.869C524.732 140.751 523.289 139.139 522.249 137.033C521.235 134.901 520.728 132.366 520.728 129.428C520.728 126.568 521.248 124.033 522.288 121.823C523.354 119.613 524.823 117.897 526.695 116.675C528.593 115.453 530.738 114.842 533.13 114.842ZM563.101 114.842C565.571 114.842 567.729 115.401 569.575 116.519C571.447 117.637 572.89 119.262 573.904 121.394C574.944 123.5 575.464 126.022 575.464 128.96C575.464 131.82 574.931 134.355 573.865 136.565C572.825 138.775 571.356 140.491 569.458 141.713C567.586 142.935 565.454 143.546 563.062 143.546C560.592 143.546 558.421 142.987 556.549 141.869C554.703 140.751 553.26 139.139 552.22 137.033C551.206 134.901 550.699 132.366 550.699 129.428C550.699 126.568 551.219 124.033 552.259 121.823C553.325 119.613 554.794 117.897 556.666 116.675C558.564 115.453 560.709 114.842 563.101 114.842ZM562.945 115.544C561.281 115.544 559.812 116.129 558.538 117.299C557.29 118.443 556.315 120.055 555.613 122.135C554.937 124.215 554.599 126.594 554.599 129.272C554.599 131.976 554.976 134.355 555.73 136.409C556.51 138.463 557.55 140.049 558.85 141.167C560.15 142.285 561.606 142.844 563.218 142.844C564.882 142.844 566.338 142.272 567.586 141.128C568.86 139.958 569.835 138.333 570.511 136.253C571.213 134.173 571.564 131.794 571.564 129.116C571.564 126.412 571.174 124.033 570.394 121.979C569.64 119.925 568.613 118.339 567.313 117.221C566.013 116.103 564.557 115.544 562.945 115.544ZM602.163 139.724C602.787 141.336 603.684 142.168 604.854 142.22V143C603.814 142.922 602.423 142.883 600.681 142.883C598.445 142.883 596.781 142.922 595.689 143V142.22C596.677 142.168 597.379 142.051 597.795 141.869C598.237 141.661 598.458 141.297 598.458 140.777C598.458 140.335 598.302 139.724 597.99 138.944L595.611 132.548H586.173L584.574 136.682C584.054 138.086 583.794 139.152 583.794 139.88C583.794 140.686 584.067 141.271 584.613 141.635C585.185 141.999 586.043 142.194 587.187 142.22V143C585.705 142.922 584.21 142.883 582.702 142.883C581.532 142.883 580.557 142.922 579.777 143V142.22C581.077 141.908 582.104 140.777 582.858 138.827L592.023 115.193H592.647L602.163 139.724ZM595.299 131.768L590.931 120.107L586.485 131.768H595.299ZM621.823 114.842C623.383 114.842 624.709 115.063 625.801 115.505C626.893 115.947 627.959 116.571 628.999 117.377C629.285 117.611 629.532 117.728 629.74 117.728C630.26 117.728 630.598 116.948 630.754 115.388H631.651C631.547 117.078 631.495 120.068 631.495 124.358H630.598C630.312 122.668 630.052 121.459 629.818 120.731C629.584 119.977 629.194 119.262 628.648 118.586C627.868 117.572 626.867 116.818 625.645 116.324C624.449 115.804 623.149 115.544 621.745 115.544C620.055 115.544 618.573 116.103 617.299 117.221C616.051 118.339 615.076 119.938 614.374 122.018C613.672 124.072 613.321 126.49 613.321 129.272C613.321 132.106 613.698 134.537 614.452 136.565C615.206 138.593 616.246 140.14 617.572 141.206C618.924 142.246 620.445 142.766 622.135 142.766C623.435 142.766 624.696 142.519 625.918 142.025C627.14 141.531 628.102 140.79 628.804 139.802C629.324 139.074 629.701 138.294 629.935 137.462C630.169 136.63 630.39 135.356 630.598 133.64H631.495C631.495 138.112 631.547 141.232 631.651 143H630.754C630.676 142.168 630.559 141.583 630.403 141.245C630.273 140.881 630.078 140.699 629.818 140.699C629.61 140.699 629.337 140.803 628.999 141.011C627.829 141.843 626.711 142.48 625.645 142.922C624.579 143.338 623.292 143.546 621.784 143.546C619.314 143.546 617.143 142.987 615.271 141.869C613.425 140.751 611.982 139.139 610.942 137.033C609.928 134.901 609.421 132.366 609.421 129.428C609.421 126.568 609.941 124.033 610.981 121.823C612.047 119.613 613.516 117.897 615.388 116.675C617.286 115.453 619.431 114.842 621.823 114.842ZM665.21 116.168C664.274 116.22 663.585 116.324 663.143 116.48C662.727 116.636 662.441 116.935 662.285 117.377C662.129 117.819 662.051 118.534 662.051 119.522V138.866C662.051 139.854 662.129 140.569 662.285 141.011C662.441 141.453 662.727 141.752 663.143 141.908C663.585 142.064 664.274 142.168 665.21 142.22V143C664.118 142.922 662.454 142.883 660.218 142.883C658.112 142.883 656.461 142.922 655.265 143V142.22C656.201 142.168 656.877 142.064 657.293 141.908C657.735 141.752 658.034 141.453 658.19 141.011C658.346 140.569 658.424 139.854 658.424 138.866V129.506H645.749V138.866C645.749 139.854 645.827 140.569 645.983 141.011C646.139 141.453 646.425 141.752 646.841 141.908C647.283 142.064 647.972 142.168 648.908 142.22V143C647.712 142.922 646.061 142.883 643.955 142.883C641.719 142.883 640.055 142.922 638.963 143V142.22C639.899 142.168 640.575 142.064 640.991 141.908C641.433 141.752 641.732 141.453 641.888 141.011C642.044 140.569 642.122 139.854 642.122 138.866V119.522C642.122 118.534 642.044 117.819 641.888 117.377C641.732 116.935 641.433 116.636 640.991 116.48C640.575 116.324 639.899 116.22 638.963 116.168V115.388C640.055 115.466 641.719 115.505 643.955 115.505C646.035 115.505 647.686 115.466 648.908 115.388V116.168C647.972 116.22 647.283 116.324 646.841 116.48C646.425 116.636 646.139 116.935 645.983 117.377C645.827 117.819 645.749 118.534 645.749 119.522V128.726H658.424V119.522C658.424 118.534 658.346 117.819 658.19 117.377C658.034 116.935 657.735 116.636 657.293 116.48C656.877 116.324 656.201 116.22 655.265 116.168V115.388C656.461 115.466 658.112 115.505 660.218 115.505C662.454 115.505 664.118 115.466 665.21 115.388V116.168Z" fill="black"/>
</svg>
