<svg width="755" height="154" viewBox="0 0 755 154" fill="none" xmlns="http://www.w3.org/2000/svg">
<path d="M36.247 24.564C35.9343 27.7353 35.778 30.594 35.778 33.14C35.778 35.3733 35.845 37.2047 35.979 38.634H34.438C34.0807 35.1947 33.634 32.6487 33.098 30.996C32.562 29.2987 31.624 28.0703 30.284 27.311C28.944 26.507 26.8893 26.105 24.12 26.105H19.899C18.291 26.105 17.1073 26.239 16.348 26.507C15.6333 26.7303 15.142 27.2217 14.874 27.981C14.606 28.7403 14.472 29.9687 14.472 31.666V48.148H19.363C20.9263 48.148 22.1323 47.7907 22.981 47.076C23.8297 46.3167 24.388 45.4457 24.656 44.463C24.9687 43.4357 25.2143 42.1627 25.393 40.644L25.594 39.304H27.135C27.001 41.18 26.934 43.2793 26.934 45.602V48.818C26.934 51.096 27.068 54.2673 27.336 58.332H25.795C25.7503 58.0193 25.6163 56.9473 25.393 55.116C25.1697 53.24 24.5443 51.833 23.517 50.895C22.5343 49.957 21.1497 49.488 19.363 49.488H14.472V64.898C14.472 66.5953 14.6507 67.8237 15.008 68.583C15.3653 69.3423 15.9907 69.856 16.884 70.124C17.7773 70.392 19.229 70.5707 21.239 70.66V72C18.9163 71.866 15.6333 71.799 11.39 71.799C7.54867 71.799 4.69 71.866 2.814 72V70.66C4.422 70.5707 5.58333 70.392 6.298 70.124C7.05733 69.856 7.571 69.3423 7.839 68.583C8.107 67.8237 8.241 66.5953 8.241 64.898V31.666C8.241 29.9687 8.107 28.7403 7.839 27.981C7.571 27.2217 7.05733 26.708 6.298 26.44C5.58333 26.172 4.422 25.9933 2.814 25.904V24.564C7.19133 24.698 13.668 24.765 22.244 24.765C28.81 24.765 33.4777 24.698 36.247 24.564ZM85.3135 63.424C85.3135 65.97 85.4698 68.8287 85.7825 72C82.7452 71.866 77.6308 71.799 70.4395 71.799C61.8635 71.799 55.3868 71.866 51.0095 72V70.66C52.6175 70.5707 53.7788 70.392 54.4935 70.124C55.2528 69.856 55.7665 69.3423 56.0345 68.583C56.3025 67.8237 56.4365 66.5953 56.4365 64.898V31.666C56.4365 29.9687 56.3025 28.7403 56.0345 27.981C55.7665 27.2217 55.2528 26.708 54.4935 26.44C53.7788 26.172 52.6175 25.9933 51.0095 25.904V24.564C55.3868 24.698 61.8635 24.765 70.4395 24.765C77.0055 24.765 81.6732 24.698 84.4425 24.564C84.1298 27.512 83.9735 30.1473 83.9735 32.47C83.9735 34.212 84.0405 35.5967 84.1745 36.624H82.6335C82.3208 33.7207 81.9188 31.5767 81.4275 30.192C80.9362 28.7627 80.1098 27.7353 78.9485 27.11C77.7872 26.44 76.0228 26.105 73.6555 26.105H68.0945C66.4865 26.105 65.3028 26.239 64.5435 26.507C63.8288 26.7303 63.3375 27.2217 63.0695 27.981C62.8015 28.7403 62.6675 29.9687 62.6675 31.666V47.478H67.0895C68.6528 47.478 69.8588 47.1207 70.7075 46.406C71.5562 45.6467 72.1145 44.7757 72.3825 43.793C72.6952 42.7657 72.9408 41.4927 73.1195 39.974L73.3205 38.634H74.8615C74.7275 40.51 74.6605 42.6093 74.6605 44.932V48.148C74.6605 50.426 74.7945 53.5973 75.0625 57.662H73.5215C73.4768 57.3493 73.3428 56.2773 73.1195 54.446C72.8962 52.57 72.2708 51.163 71.2435 50.225C70.2608 49.287 68.8762 48.818 67.0895 48.818H62.6675V64.898C62.6675 66.5953 62.8015 67.8237 63.0695 68.583C63.3375 69.3423 63.8288 69.856 64.5435 70.124C65.3028 70.3473 66.4865 70.459 68.0945 70.459H72.9855C75.7548 70.459 77.8542 70.1017 79.2835 69.387C80.7575 68.6277 81.8295 67.444 82.4995 65.836C83.1695 64.1833 83.6608 61.7713 83.9735 58.6H85.5145C85.3805 59.806 85.3135 61.414 85.3135 63.424ZM118.973 25.904C117.365 25.9933 116.181 26.172 115.422 26.44C114.707 26.708 114.216 27.2217 113.948 27.981C113.68 28.7403 113.546 29.9687 113.546 31.666V64.898C113.546 66.5953 113.68 67.8237 113.948 68.583C114.216 69.3423 114.707 69.856 115.422 70.124C116.181 70.3473 117.365 70.459 118.973 70.459H123.864C126.633 70.459 128.732 70.0793 130.162 69.32C131.636 68.516 132.708 67.243 133.378 65.501C134.048 63.759 134.539 61.2353 134.852 57.93H136.393C136.259 59.3147 136.192 61.146 136.192 63.424C136.192 65.97 136.348 68.8287 136.661 72C133.623 71.866 128.509 71.799 121.318 71.799C112.742 71.799 106.265 71.866 101.888 72V70.66C103.496 70.5707 104.657 70.392 105.372 70.124C106.131 69.856 106.645 69.3423 106.913 68.583C107.181 67.8237 107.315 66.5953 107.315 64.898V31.666C107.315 29.9687 107.181 28.7403 106.913 27.981C106.645 27.2217 106.131 26.708 105.372 26.44C104.657 26.172 103.496 25.9933 101.888 25.904V24.564C103.764 24.698 106.622 24.765 110.464 24.765C114.037 24.765 116.873 24.698 118.973 24.564V25.904ZM168.411 25.904C166.803 25.9933 165.62 26.172 164.86 26.44C164.146 26.708 163.654 27.2217 163.386 27.981C163.118 28.7403 162.984 29.9687 162.984 31.666V64.898C162.984 66.5953 163.118 67.8237 163.386 68.583C163.654 69.3423 164.146 69.856 164.86 70.124C165.62 70.392 166.803 70.5707 168.411 70.66V72C166.357 71.866 163.52 71.799 159.902 71.799C156.061 71.799 153.202 71.866 151.326 72V70.66C152.934 70.5707 154.096 70.392 154.81 70.124C155.57 69.856 156.083 69.3423 156.351 68.583C156.619 67.8237 156.753 66.5953 156.753 64.898V31.666C156.753 29.9687 156.619 28.7403 156.351 27.981C156.083 27.2217 155.57 26.708 154.81 26.44C154.096 26.172 152.934 25.9933 151.326 25.904V24.564C153.202 24.698 156.061 24.765 159.902 24.765C163.476 24.765 166.312 24.698 168.411 24.564V25.904ZM205.6 23.626C208.28 23.626 210.558 24.0057 212.434 24.765C214.31 25.5243 216.141 26.5963 217.928 27.981C218.419 28.383 218.844 28.584 219.201 28.584C220.094 28.584 220.675 27.244 220.943 24.564H222.484C222.305 27.4673 222.216 32.604 222.216 39.974H220.675C220.184 37.0707 219.737 34.9937 219.335 33.743C218.933 32.4477 218.263 31.2193 217.325 30.058C215.985 28.316 214.265 27.0207 212.166 26.172C210.111 25.2787 207.878 24.832 205.466 24.832C202.563 24.832 200.017 25.7923 197.828 27.713C195.684 29.6337 194.009 32.3807 192.803 35.954C191.597 39.4827 190.994 43.6367 190.994 48.416C190.994 53.2847 191.642 57.461 192.937 60.945C194.232 64.429 196.019 67.0867 198.297 68.918C200.62 70.7047 203.233 71.598 206.136 71.598C208.369 71.598 210.536 71.1737 212.635 70.325C214.734 69.4763 216.387 68.2033 217.593 66.506C218.486 65.2553 219.134 63.9153 219.536 62.486C219.938 61.0567 220.318 58.868 220.675 55.92H222.216C222.216 63.6027 222.305 68.9627 222.484 72H220.943C220.809 70.5707 220.608 69.5657 220.34 68.985C220.117 68.3597 219.782 68.047 219.335 68.047C218.978 68.047 218.509 68.2257 217.928 68.583C215.918 70.0123 213.997 71.1067 212.166 71.866C210.335 72.5807 208.124 72.938 205.533 72.938C201.29 72.938 197.56 71.9777 194.344 70.057C191.173 68.1363 188.694 65.367 186.907 61.749C185.165 58.0863 184.294 53.7313 184.294 48.684C184.294 43.7707 185.187 39.4157 186.974 35.619C188.805 31.8223 191.329 28.8743 194.545 26.775C197.806 24.6757 201.491 23.626 205.6 23.626ZM256.82 25.904C255.212 25.9933 254.028 26.172 253.269 26.44C252.554 26.708 252.063 27.2217 251.795 27.981C251.527 28.7403 251.393 29.9687 251.393 31.666V64.898C251.393 66.5953 251.527 67.8237 251.795 68.583C252.063 69.3423 252.554 69.856 253.269 70.124C254.028 70.392 255.212 70.5707 256.82 70.66V72C254.765 71.866 251.929 71.799 248.311 71.799C244.47 71.799 241.611 71.866 239.735 72V70.66C241.343 70.5707 242.504 70.392 243.219 70.124C243.978 69.856 244.492 69.3423 244.76 68.583C245.028 67.8237 245.162 66.5953 245.162 64.898V31.666C245.162 29.9687 245.028 28.7403 244.76 27.981C244.492 27.2217 243.978 26.708 243.219 26.44C242.504 26.172 241.343 25.9933 239.735 25.904V24.564C241.611 24.698 244.47 24.765 248.311 24.765C251.884 24.765 254.721 24.698 256.82 24.564V25.904ZM309.339 24.564C309.026 27.7353 308.87 30.594 308.87 33.14C308.87 35.3733 308.937 37.2047 309.071 38.634H307.53C307.173 35.1947 306.726 32.6487 306.19 30.996C305.654 29.2987 304.716 28.0703 303.376 27.311C302.036 26.507 299.981 26.105 297.212 26.105H293.594V64.228C293.594 66.104 293.773 67.4663 294.13 68.315C294.487 69.1637 295.113 69.7443 296.006 70.057C296.899 70.3697 298.351 70.5707 300.361 70.66V72C298.038 71.866 294.755 71.799 290.512 71.799C286.045 71.799 282.74 71.866 280.596 72V70.66C282.606 70.5707 284.058 70.3697 284.951 70.057C285.844 69.7443 286.47 69.1637 286.827 68.315C287.184 67.4663 287.363 66.104 287.363 64.228V26.105H283.745C280.976 26.105 278.921 26.507 277.581 27.311C276.241 28.0703 275.303 29.2987 274.767 30.996C274.231 32.6487 273.784 35.1947 273.427 38.634H271.886C272.02 37.2047 272.087 35.3733 272.087 33.14C272.087 30.594 271.931 27.7353 271.618 24.564C275.325 24.698 281.623 24.765 290.512 24.765C299.356 24.765 305.632 24.698 309.339 24.564ZM355.709 24.765C357.719 24.765 359.394 24.698 360.734 24.564V25.904C359.841 26.1273 358.97 26.708 358.121 27.646C357.273 28.5393 356.357 29.9463 355.374 31.867L344.855 52.704V64.898C344.855 66.5953 344.989 67.8237 345.257 68.583C345.525 69.3423 346.017 69.856 346.731 70.124C347.491 70.392 348.674 70.5707 350.282 70.66V72C348.228 71.866 345.391 71.799 341.773 71.799C337.932 71.799 335.073 71.866 333.197 72V70.66C334.805 70.5707 335.967 70.392 336.681 70.124C337.441 69.856 337.954 69.3423 338.222 68.583C338.49 67.8237 338.624 66.5953 338.624 64.898V54.848L325.023 29.723C324.219 28.249 323.505 27.2663 322.879 26.775C322.299 26.239 321.718 25.971 321.137 25.971V24.564C322.879 24.698 324.845 24.765 327.033 24.765C331.366 24.765 334.493 24.698 336.413 24.564V25.971C333.287 25.971 331.723 26.8197 331.723 28.517C331.723 29.187 331.947 29.9687 332.393 30.862L343.515 52.235L352.091 35.217C353.297 32.8497 353.9 30.929 353.9 29.455C353.9 28.2043 353.409 27.311 352.426 26.775C351.444 26.239 349.97 25.9487 348.004 25.904V24.564C350.55 24.698 353.119 24.765 355.709 24.765ZM431.796 24.564C431.483 27.7353 431.327 30.594 431.327 33.14C431.327 35.3733 431.394 37.2047 431.528 38.634H429.987C429.629 35.1947 429.183 32.6487 428.647 30.996C428.111 29.2987 427.173 28.0703 425.833 27.311C424.493 26.507 422.438 26.105 419.669 26.105H415.448C413.84 26.105 412.656 26.239 411.897 26.507C411.182 26.7303 410.691 27.2217 410.423 27.981C410.155 28.7403 410.021 29.9687 410.021 31.666V48.148H414.912C416.475 48.148 417.681 47.7907 418.53 47.076C419.378 46.3167 419.937 45.4457 420.205 44.463C420.517 43.4357 420.763 42.1627 420.942 40.644L421.143 39.304H422.684C422.55 41.18 422.483 43.2793 422.483 45.602V48.818C422.483 51.096 422.617 54.2673 422.885 58.332H421.344C421.299 58.0193 421.165 56.9473 420.942 55.116C420.718 53.24 420.093 51.833 419.066 50.895C418.083 49.957 416.698 49.488 414.912 49.488H410.021V64.898C410.021 66.5953 410.199 67.8237 410.557 68.583C410.914 69.3423 411.539 69.856 412.433 70.124C413.326 70.392 414.778 70.5707 416.788 70.66V72C414.465 71.866 411.182 71.799 406.939 71.799C403.097 71.799 400.239 71.866 398.363 72V70.66C399.971 70.5707 401.132 70.392 401.847 70.124C402.606 69.856 403.12 69.3423 403.388 68.583C403.656 67.8237 403.79 66.5953 403.79 64.898V31.666C403.79 29.9687 403.656 28.7403 403.388 27.981C403.12 27.2217 402.606 26.708 401.847 26.44C401.132 26.172 399.971 25.9933 398.363 25.904V24.564C402.74 24.698 409.217 24.765 417.793 24.765C424.359 24.765 429.026 24.698 431.796 24.564ZM467.947 23.626C472.19 23.626 475.898 24.5863 479.069 26.507C482.285 28.4277 484.764 31.2193 486.506 34.882C488.293 38.5 489.186 42.8327 489.186 47.88C489.186 52.7933 488.27 57.1483 486.439 60.945C484.652 64.7417 482.129 67.6897 478.868 69.789C475.652 71.8883 471.989 72.938 467.88 72.938C463.637 72.938 459.907 71.9777 456.691 70.057C453.52 68.1363 451.041 65.367 449.254 61.749C447.512 58.0863 446.641 53.7313 446.641 48.684C446.641 43.7707 447.534 39.4157 449.321 35.619C451.152 31.8223 453.676 28.8743 456.892 26.775C460.153 24.6757 463.838 23.626 467.947 23.626ZM467.679 24.832C464.82 24.832 462.297 25.837 460.108 27.847C457.964 29.8123 456.289 32.5817 455.083 36.155C453.922 39.7283 453.341 43.8153 453.341 48.416C453.341 53.0613 453.989 57.1483 455.284 60.677C456.624 64.2057 458.411 66.9303 460.644 68.851C462.877 70.7717 465.379 71.732 468.148 71.732C471.007 71.732 473.508 70.7493 475.652 68.784C477.841 66.774 479.516 63.9823 480.677 60.409C481.883 56.8357 482.486 52.7487 482.486 48.148C482.486 43.5027 481.816 39.4157 480.476 35.887C479.181 32.3583 477.416 29.6337 475.183 27.713C472.95 25.7923 470.448 24.832 467.679 24.832ZM546.498 68.65C545.47 70.1687 544.443 71.263 543.416 71.933C542.388 72.603 541.026 72.938 539.329 72.938C537.497 72.938 535.979 72.402 534.773 71.33C533.611 70.258 532.74 68.382 532.16 65.702L530.686 59.002C530.15 56.6793 529.636 54.8927 529.145 53.642C528.698 52.3913 528.006 51.3863 527.068 50.627C526.13 49.8677 524.812 49.488 523.115 49.488H516.75V64.898C516.75 66.5953 516.884 67.8237 517.152 68.583C517.42 69.3423 517.911 69.856 518.626 70.124C519.385 70.392 520.569 70.5707 522.177 70.66V72C520.122 71.866 517.286 71.799 513.668 71.799C509.826 71.799 506.968 71.866 505.092 72V70.66C506.7 70.5707 507.861 70.392 508.576 70.124C509.335 69.856 509.849 69.3423 510.117 68.583C510.385 67.8237 510.519 66.5953 510.519 64.898V31.666C510.519 29.9687 510.385 28.7403 510.117 27.981C509.849 27.2217 509.335 26.708 508.576 26.44C507.861 26.172 506.7 25.9933 505.092 25.904V24.564C506.968 24.698 509.692 24.765 513.266 24.765L520.502 24.698C521.35 24.6533 522.311 24.631 523.383 24.631C528.564 24.631 532.539 25.7253 535.309 27.914C538.123 30.058 539.53 32.8497 539.53 36.289C539.53 38.031 539.105 39.7953 538.257 41.582C537.453 43.324 536.068 44.9097 534.103 46.339C532.182 47.7237 529.658 48.6617 526.532 49.153L527.336 49.287C530.284 49.7783 532.428 50.6717 533.768 51.967C535.108 53.2623 536.09 55.317 536.716 58.131L538.391 64.965C538.837 67.0197 539.306 68.449 539.798 69.253C540.289 70.057 540.959 70.459 541.808 70.459C542.567 70.459 543.192 70.258 543.684 69.856C544.22 69.454 544.823 68.8063 545.493 67.913L546.498 68.65ZM521.708 25.904C520.323 25.904 519.273 26.0603 518.559 26.373C517.889 26.6857 517.42 27.244 517.152 28.048C516.884 28.852 516.75 30.058 516.75 31.666V48.148H521.239C525.661 48.148 528.698 47.1653 530.351 45.2C532.003 43.2347 532.83 40.51 532.83 37.026C532.83 33.3633 531.959 30.594 530.217 28.718C528.475 26.842 525.638 25.904 521.708 25.904ZM572.925 23.827C574.89 23.827 576.431 24.0503 577.548 24.497C578.709 24.899 579.893 25.502 581.099 26.306C582.081 26.9313 582.841 27.244 583.377 27.244C583.779 27.244 584.091 27.0207 584.315 26.574C584.538 26.0827 584.717 25.3233 584.851 24.296H586.392C586.168 26.8867 586.057 31.4427 586.057 37.964H584.516C584.248 34.346 583.198 31.3087 581.367 28.852C579.58 26.3507 576.967 25.1 573.528 25.1C571.116 25.1 569.15 25.837 567.632 27.311C566.113 28.7403 565.354 30.594 565.354 32.872C565.354 34.5693 565.733 36.0433 566.493 37.294C567.297 38.5447 568.302 39.6167 569.508 40.51C570.714 41.4033 572.433 42.5423 574.667 43.927L576.61 45.133C579.424 46.875 581.635 48.416 583.243 49.756C584.895 51.0513 586.213 52.5477 587.196 54.245C588.178 55.9423 588.67 57.93 588.67 60.208C588.67 64.2727 587.33 67.4217 584.65 69.655C581.97 71.8437 578.575 72.938 574.466 72.938C572.322 72.938 570.557 72.7147 569.173 72.268C567.833 71.8213 566.537 71.2183 565.287 70.459C564.304 69.8337 563.545 69.521 563.009 69.521C562.607 69.521 562.294 69.7667 562.071 70.258C561.847 70.7047 561.669 71.4417 561.535 72.469H559.994C560.172 70.0123 560.262 64.6523 560.262 56.389H561.803C562.115 60.9003 563.232 64.563 565.153 67.377C567.073 70.191 570.021 71.598 573.997 71.598C576.409 71.598 578.463 70.861 580.161 69.387C581.858 67.8683 582.707 65.635 582.707 62.687C582.707 60.1857 581.858 58.064 580.161 56.322C578.508 54.58 575.873 52.6147 572.255 50.426C569.619 48.818 567.475 47.3887 565.823 46.138C564.215 44.8873 562.897 43.391 561.87 41.649C560.842 39.8623 560.329 37.7853 560.329 35.418C560.329 31.666 561.535 28.8073 563.947 26.842C566.359 24.832 569.351 23.827 572.925 23.827ZM636.376 24.765C638.386 24.765 640.061 24.698 641.401 24.564V25.904C640.508 26.1273 639.637 26.708 638.788 27.646C637.94 28.5393 637.024 29.9463 636.041 31.867L625.522 52.704V64.898C625.522 66.5953 625.656 67.8237 625.924 68.583C626.192 69.3423 626.684 69.856 627.398 70.124C628.158 70.392 629.341 70.5707 630.949 70.66V72C628.895 71.866 626.058 71.799 622.44 71.799C618.599 71.799 615.74 71.866 613.864 72V70.66C615.472 70.5707 616.634 70.392 617.348 70.124C618.108 69.856 618.621 69.3423 618.889 68.583C619.157 67.8237 619.291 66.5953 619.291 64.898V54.848L605.69 29.723C604.886 28.249 604.172 27.2663 603.546 26.775C602.966 26.239 602.385 25.971 601.804 25.971V24.564C603.546 24.698 605.512 24.765 607.7 24.765C612.033 24.765 615.16 24.698 617.08 24.564V25.971C613.954 25.971 612.39 26.8197 612.39 28.517C612.39 29.187 612.614 29.9687 613.06 30.862L624.182 52.235L632.758 35.217C633.964 32.8497 634.567 30.929 634.567 29.455C634.567 28.2043 634.076 27.311 633.093 26.775C632.111 26.239 630.637 25.9487 628.671 25.904V24.564C631.217 24.698 633.786 24.765 636.376 24.765ZM691.304 24.564C690.992 27.7353 690.835 30.594 690.835 33.14C690.835 35.3733 690.902 37.2047 691.036 38.634H689.495C689.138 35.1947 688.691 32.6487 688.155 30.996C687.619 29.2987 686.681 28.0703 685.341 27.311C684.001 26.507 681.947 26.105 679.177 26.105H675.559V64.228C675.559 66.104 675.738 67.4663 676.095 68.315C676.453 69.1637 677.078 69.7443 677.971 70.057C678.865 70.3697 680.316 70.5707 682.326 70.66V72C680.004 71.866 676.721 71.799 672.477 71.799C668.011 71.799 664.705 71.866 662.561 72V70.66C664.571 70.5707 666.023 70.3697 666.916 70.057C667.81 69.7443 668.435 69.1637 668.792 68.315C669.15 67.4663 669.328 66.104 669.328 64.228V26.105H665.71C662.941 26.105 660.886 26.507 659.546 27.311C658.206 28.0703 657.268 29.2987 656.732 30.996C656.196 32.6487 655.75 35.1947 655.392 38.634H653.851C653.985 37.2047 654.052 35.3733 654.052 33.14C654.052 30.594 653.896 27.7353 653.583 24.564C657.291 24.698 663.589 24.765 672.477 24.765C681.321 24.765 687.597 24.698 691.304 24.564ZM751.209 25.904C749.601 25.9933 748.417 26.172 747.658 26.44C746.943 26.708 746.452 27.2217 746.184 27.981C745.916 28.7403 745.782 29.9687 745.782 31.666V64.898C745.782 66.5953 745.916 67.8237 746.184 68.583C746.452 69.3423 746.943 69.856 747.658 70.124C748.417 70.392 749.601 70.5707 751.209 70.66V72C749.333 71.866 746.474 71.799 742.633 71.799C739.015 71.799 736.178 71.866 734.124 72V70.66C735.732 70.5707 736.893 70.392 737.608 70.124C738.367 69.856 738.881 69.3423 739.149 68.583C739.417 67.8237 739.551 66.5953 739.551 64.898V48.818H717.776V64.898C717.776 66.5953 717.91 67.8237 718.178 68.583C718.446 69.3423 718.937 69.856 719.652 70.124C720.411 70.392 721.595 70.5707 723.203 70.66V72C721.148 71.866 718.312 71.799 714.694 71.799C710.852 71.799 707.994 71.866 706.118 72V70.66C707.726 70.5707 708.887 70.392 709.602 70.124C710.361 69.856 710.875 69.3423 711.143 68.583C711.411 67.8237 711.545 66.5953 711.545 64.898V31.666C711.545 29.9687 711.411 28.7403 711.143 27.981C710.875 27.2217 710.361 26.708 709.602 26.44C708.887 26.172 707.726 25.9933 706.118 25.904V24.564C707.994 24.698 710.852 24.765 714.694 24.765C718.267 24.765 721.103 24.698 723.203 24.564V25.904C721.595 25.9933 720.411 26.172 719.652 26.44C718.937 26.708 718.446 27.2217 718.178 27.981C717.91 28.7403 717.776 29.9687 717.776 31.666V47.478H739.551V31.666C739.551 29.9687 739.417 28.7403 739.149 27.981C738.881 27.2217 738.367 26.708 737.608 26.44C736.893 26.172 735.732 25.9933 734.124 25.904V24.564C736.178 24.698 739.015 24.765 742.633 24.765C746.474 24.765 749.333 24.698 751.209 24.564V25.904Z" fill="black"/>
<path d="M48.9076 115.842C50.4676 115.842 51.7936 116.063 52.8856 116.505C53.9776 116.947 55.0436 117.571 56.0836 118.377C56.3696 118.611 56.6166 118.728 56.8246 118.728C57.3446 118.728 57.6826 117.948 57.8386 116.388H58.7356C58.6316 118.078 58.5796 121.068 58.5796 125.358H57.6826C57.3966 123.668 57.1366 122.459 56.9026 121.731C56.6686 120.977 56.2786 120.262 55.7326 119.586C54.9526 118.572 53.9516 117.818 52.7296 117.324C51.5336 116.804 50.2336 116.544 48.8296 116.544C47.1396 116.544 45.6576 117.103 44.3836 118.221C43.1356 119.339 42.1606 120.938 41.4586 123.018C40.7566 125.072 40.4056 127.49 40.4056 130.272C40.4056 133.106 40.7826 135.537 41.5366 137.565C42.2906 139.593 43.3306 141.14 44.6566 142.206C46.0086 143.246 47.5296 143.766 49.2196 143.766C50.5196 143.766 51.7806 143.519 53.0026 143.025C54.2246 142.531 55.1866 141.79 55.8886 140.802C56.4086 140.074 56.7856 139.294 57.0196 138.462C57.2536 137.63 57.4746 136.356 57.6826 134.64H58.5796C58.5796 139.112 58.6316 142.232 58.7356 144H57.8386C57.7606 143.168 57.6436 142.583 57.4876 142.245C57.3576 141.881 57.1626 141.699 56.9026 141.699C56.6946 141.699 56.4216 141.803 56.0836 142.011C54.9136 142.843 53.7956 143.48 52.7296 143.922C51.6636 144.338 50.3766 144.546 48.8686 144.546C46.3986 144.546 44.2276 143.987 42.3556 142.869C40.5096 141.751 39.0666 140.139 38.0266 138.033C37.0126 135.901 36.5056 133.366 36.5056 130.428C36.5056 127.568 37.0256 125.033 38.0656 122.823C39.1316 120.613 40.6006 118.897 42.4726 117.675C44.3706 116.453 46.5156 115.842 48.9076 115.842ZM93.8542 117.168C92.9182 117.22 92.2292 117.324 91.7872 117.48C91.3712 117.636 91.0852 117.935 90.9292 118.377C90.7732 118.819 90.6952 119.534 90.6952 120.522V139.866C90.6952 140.854 90.7732 141.569 90.9292 142.011C91.0852 142.453 91.3712 142.752 91.7872 142.908C92.2292 143.064 92.9182 143.168 93.8542 143.22V144C92.7622 143.922 91.0982 143.883 88.8622 143.883C86.7562 143.883 85.1052 143.922 83.9092 144V143.22C84.8452 143.168 85.5212 143.064 85.9372 142.908C86.3792 142.752 86.6782 142.453 86.8342 142.011C86.9902 141.569 87.0682 140.854 87.0682 139.866V130.506H74.3932V139.866C74.3932 140.854 74.4712 141.569 74.6272 142.011C74.7832 142.453 75.0692 142.752 75.4852 142.908C75.9272 143.064 76.6162 143.168 77.5522 143.22V144C76.3562 143.922 74.7052 143.883 72.5992 143.883C70.3632 143.883 68.6992 143.922 67.6072 144V143.22C68.5432 143.168 69.2192 143.064 69.6352 142.908C70.0772 142.752 70.3762 142.453 70.5322 142.011C70.6882 141.569 70.7662 140.854 70.7662 139.866V120.522C70.7662 119.534 70.6882 118.819 70.5322 118.377C70.3762 117.935 70.0772 117.636 69.6352 117.48C69.2192 117.324 68.5432 117.22 67.6072 117.168V116.388C68.6992 116.466 70.3632 116.505 72.5992 116.505C74.6792 116.505 76.3302 116.466 77.5522 116.388V117.168C76.6162 117.22 75.9272 117.324 75.4852 117.48C75.0692 117.636 74.7832 117.935 74.6272 118.377C74.4712 118.819 74.3932 119.534 74.3932 120.522V129.726H87.0682V120.522C87.0682 119.534 86.9902 118.819 86.8342 118.377C86.6782 117.935 86.3792 117.636 85.9372 117.48C85.5212 117.324 84.8452 117.22 83.9092 117.168V116.388C85.1052 116.466 86.7562 116.505 88.8622 116.505C91.0982 116.505 92.7622 116.466 93.8542 116.388V117.168ZM122.279 140.724C122.903 142.336 123.8 143.168 124.97 143.22V144C123.93 143.922 122.539 143.883 120.797 143.883C118.561 143.883 116.897 143.922 115.805 144V143.22C116.793 143.168 117.495 143.051 117.911 142.869C118.353 142.661 118.574 142.297 118.574 141.777C118.574 141.335 118.418 140.724 118.106 139.944L115.727 133.548H106.289L104.69 137.682C104.17 139.086 103.91 140.152 103.91 140.88C103.91 141.686 104.183 142.271 104.729 142.635C105.301 142.999 106.159 143.194 107.303 143.22V144C105.821 143.922 104.326 143.883 102.818 143.883C101.648 143.883 100.673 143.922 99.8928 144V143.22C101.193 142.908 102.22 141.777 102.974 139.827L112.139 116.193H112.763L122.279 140.724ZM115.415 132.768L111.047 121.107L106.601 132.768H115.415ZM154.78 117.168C153.87 117.22 153.194 117.363 152.752 117.597C152.31 117.805 152.011 118.169 151.855 118.689C151.699 119.183 151.621 119.924 151.621 120.912V144.195H150.724L134.344 118.884V139.476C134.344 140.49 134.422 141.244 134.578 141.738C134.76 142.232 135.098 142.596 135.592 142.83C136.086 143.038 136.853 143.168 137.893 143.22V144C136.957 143.922 135.631 143.883 133.915 143.883C132.355 143.883 131.146 143.922 130.288 144V143.22C131.198 143.168 131.874 143.038 132.316 142.83C132.758 142.596 133.057 142.232 133.213 141.738C133.369 141.218 133.447 140.464 133.447 139.476V120.522C133.447 119.534 133.369 118.819 133.213 118.377C133.057 117.935 132.758 117.636 132.316 117.48C131.9 117.324 131.224 117.22 130.288 117.168V116.388C131.146 116.466 132.355 116.505 133.915 116.505C135.085 116.505 136.099 116.466 136.957 116.388L150.724 137.604V120.912C150.724 119.898 150.633 119.144 150.451 118.65C150.295 118.156 149.97 117.805 149.476 117.597C148.982 117.363 148.215 117.22 147.175 117.168V116.388C148.111 116.466 149.437 116.505 151.153 116.505C152.713 116.505 153.922 116.466 154.78 116.388V117.168ZM175.263 115.842C176.797 115.842 178.058 116.063 179.046 116.505C180.034 116.921 181.113 117.545 182.283 118.377C182.621 118.637 182.881 118.767 183.063 118.767C183.557 118.767 183.882 117.974 184.038 116.388H184.935C184.831 118.078 184.779 121.068 184.779 125.358H183.882C183.648 123.98 183.401 122.849 183.141 121.965C182.881 121.055 182.478 120.262 181.932 119.586C181.178 118.65 180.19 117.909 178.968 117.363C177.772 116.817 176.511 116.544 175.185 116.544C173.469 116.544 171.961 117.103 170.661 118.221C169.361 119.339 168.36 120.938 167.658 123.018C166.956 125.072 166.605 127.477 166.605 130.233C166.605 134.913 167.346 138.345 168.828 140.529C170.336 142.687 172.689 143.766 175.887 143.766C177.447 143.766 178.799 143.363 179.943 142.557C180.411 142.245 180.71 141.946 180.84 141.66C180.996 141.348 181.074 140.932 181.074 140.412V136.668C181.074 135.576 180.97 134.783 180.762 134.289C180.554 133.795 180.19 133.457 179.67 133.275C179.15 133.093 178.305 132.976 177.135 132.924V132.144C178.487 132.222 180.32 132.261 182.634 132.261C184.402 132.261 185.754 132.222 186.69 132.144V132.924C186.092 132.976 185.65 133.08 185.364 133.236C185.104 133.392 184.922 133.691 184.818 134.133C184.74 134.575 184.701 135.29 184.701 136.278V144H183.921C183.895 143.48 183.791 142.986 183.609 142.518C183.427 142.024 183.18 141.777 182.868 141.777C182.712 141.777 182.556 141.816 182.4 141.894C182.244 141.972 181.971 142.154 181.581 142.44C180.671 143.142 179.722 143.662 178.734 144C177.772 144.364 176.693 144.546 175.497 144.546C172.819 144.546 170.518 144 168.594 142.908C166.696 141.79 165.24 140.191 164.226 138.111C163.212 136.031 162.705 133.548 162.705 130.662C162.705 127.698 163.238 125.098 164.304 122.862C165.396 120.6 166.891 118.871 168.789 117.675C170.687 116.453 172.845 115.842 175.263 115.842ZM214.307 139.008C214.307 140.49 214.398 142.154 214.58 144C212.812 143.922 209.835 143.883 205.649 143.883C200.657 143.883 196.887 143.922 194.339 144V143.22C195.275 143.168 195.951 143.064 196.367 142.908C196.809 142.752 197.108 142.453 197.264 142.011C197.42 141.569 197.498 140.854 197.498 139.866V120.522C197.498 119.534 197.42 118.819 197.264 118.377C197.108 117.935 196.809 117.636 196.367 117.48C195.951 117.324 195.275 117.22 194.339 117.168V116.388C196.887 116.466 200.657 116.505 205.649 116.505C209.471 116.505 212.188 116.466 213.8 116.388C213.618 118.104 213.527 119.638 213.527 120.99C213.527 122.004 213.566 122.81 213.644 123.408H212.747C212.565 121.718 212.331 120.47 212.045 119.664C211.759 118.832 211.278 118.234 210.602 117.87C209.926 117.48 208.899 117.285 207.521 117.285H204.284C203.348 117.285 202.659 117.363 202.217 117.519C201.801 117.649 201.515 117.935 201.359 118.377C201.203 118.819 201.125 119.534 201.125 120.522V129.726H203.699C204.609 129.726 205.311 129.518 205.805 129.102C206.299 128.66 206.624 128.153 206.78 127.581C206.962 126.983 207.105 126.242 207.209 125.358L207.326 124.578H208.223C208.145 125.67 208.106 126.892 208.106 128.244V130.116C208.106 131.442 208.184 133.288 208.34 135.654H207.443C207.417 135.472 207.339 134.848 207.209 133.782C207.079 132.69 206.715 131.871 206.117 131.325C205.545 130.779 204.739 130.506 203.699 130.506H201.125V139.866C201.125 140.854 201.203 141.569 201.359 142.011C201.515 142.453 201.801 142.752 202.217 142.908C202.659 143.038 203.348 143.103 204.284 143.103H207.131C208.743 143.103 209.965 142.895 210.797 142.479C211.655 142.037 212.279 141.348 212.669 140.412C213.059 139.45 213.345 138.046 213.527 136.2H214.424C214.346 136.902 214.307 137.838 214.307 139.008ZM247.706 129.57H256.754V130.74H247.706V139.905H246.302V130.74H237.215V129.57H246.302V120.366H247.706V129.57ZM299.636 116.388C299.454 118.234 299.363 119.898 299.363 121.38C299.363 122.68 299.402 123.746 299.48 124.578H298.583C298.375 122.576 298.115 121.094 297.803 120.132C297.491 119.144 296.945 118.429 296.165 117.987C295.385 117.519 294.189 117.285 292.577 117.285H290.471V139.476C290.471 140.568 290.575 141.361 290.783 141.855C290.991 142.349 291.355 142.687 291.875 142.869C292.395 143.051 293.24 143.168 294.41 143.22V144C293.058 143.922 291.147 143.883 288.677 143.883C286.077 143.883 284.153 143.922 282.905 144V143.22C284.075 143.168 284.92 143.051 285.44 142.869C285.96 142.687 286.324 142.349 286.532 141.855C286.74 141.361 286.844 140.568 286.844 139.476V117.285H284.738C283.126 117.285 281.93 117.519 281.15 117.987C280.37 118.429 279.824 119.144 279.512 120.132C279.2 121.094 278.94 122.576 278.732 124.578H277.835C277.913 123.746 277.952 122.68 277.952 121.38C277.952 119.898 277.861 118.234 277.679 116.388C279.837 116.466 283.503 116.505 288.677 116.505C293.825 116.505 297.478 116.466 299.636 116.388ZM331.191 142.05C330.593 142.934 329.995 143.571 329.397 143.961C328.799 144.351 328.006 144.546 327.018 144.546C325.952 144.546 325.068 144.234 324.366 143.61C323.69 142.986 323.183 141.894 322.845 140.334L321.987 136.434C321.675 135.082 321.376 134.042 321.09 133.314C320.83 132.586 320.427 132.001 319.881 131.559C319.335 131.117 318.568 130.896 317.58 130.896H313.875V139.866C313.875 140.854 313.953 141.569 314.109 142.011C314.265 142.453 314.551 142.752 314.967 142.908C315.409 143.064 316.098 143.168 317.034 143.22V144C315.838 143.922 314.187 143.883 312.081 143.883C309.845 143.883 308.181 143.922 307.089 144V143.22C308.025 143.168 308.701 143.064 309.117 142.908C309.559 142.752 309.858 142.453 310.014 142.011C310.17 141.569 310.248 140.854 310.248 139.866V120.522C310.248 119.534 310.17 118.819 310.014 118.377C309.858 117.935 309.559 117.636 309.117 117.48C308.701 117.324 308.025 117.22 307.089 117.168V116.388C308.181 116.466 309.767 116.505 311.847 116.505L316.059 116.466C316.553 116.44 317.112 116.427 317.736 116.427C320.752 116.427 323.066 117.064 324.678 118.338C326.316 119.586 327.135 121.211 327.135 123.213C327.135 124.227 326.888 125.254 326.394 126.294C325.926 127.308 325.12 128.231 323.976 129.063C322.858 129.869 321.389 130.415 319.569 130.701L320.037 130.779C321.753 131.065 323.001 131.585 323.781 132.339C324.561 133.093 325.133 134.289 325.497 135.927L326.472 139.905C326.732 141.101 327.005 141.933 327.291 142.401C327.577 142.869 327.967 143.103 328.461 143.103C328.903 143.103 329.267 142.986 329.553 142.752C329.865 142.518 330.216 142.141 330.606 141.621L331.191 142.05ZM316.761 117.168C315.955 117.168 315.344 117.259 314.928 117.441C314.538 117.623 314.265 117.948 314.109 118.416C313.953 118.884 313.875 119.586 313.875 120.522V130.116H316.488C319.062 130.116 320.83 129.544 321.792 128.4C322.754 127.256 323.235 125.67 323.235 123.642C323.235 121.51 322.728 119.898 321.714 118.806C320.7 117.714 319.049 117.168 316.761 117.168ZM357.533 140.724C358.157 142.336 359.054 143.168 360.224 143.22V144C359.184 143.922 357.793 143.883 356.051 143.883C353.815 143.883 352.151 143.922 351.059 144V143.22C352.047 143.168 352.749 143.051 353.165 142.869C353.607 142.661 353.828 142.297 353.828 141.777C353.828 141.335 353.672 140.724 353.36 139.944L350.981 133.548H341.543L339.944 137.682C339.424 139.086 339.164 140.152 339.164 140.88C339.164 141.686 339.437 142.271 339.983 142.635C340.555 142.999 341.413 143.194 342.557 143.22V144C341.075 143.922 339.58 143.883 338.072 143.883C336.902 143.883 335.927 143.922 335.147 144V143.22C336.447 142.908 337.474 141.777 338.228 139.827L347.393 116.193H348.017L357.533 140.724ZM350.669 132.768L346.301 121.107L341.855 132.768H350.669ZM390.033 117.168C389.123 117.22 388.447 117.363 388.005 117.597C387.563 117.805 387.264 118.169 387.108 118.689C386.952 119.183 386.874 119.924 386.874 120.912V144.195H385.977L369.597 118.884V139.476C369.597 140.49 369.675 141.244 369.831 141.738C370.013 142.232 370.351 142.596 370.845 142.83C371.339 143.038 372.106 143.168 373.146 143.22V144C372.21 143.922 370.884 143.883 369.168 143.883C367.608 143.883 366.399 143.922 365.541 144V143.22C366.451 143.168 367.127 143.038 367.569 142.83C368.011 142.596 368.31 142.232 368.466 141.738C368.622 141.218 368.7 140.464 368.7 139.476V120.522C368.7 119.534 368.622 118.819 368.466 118.377C368.31 117.935 368.011 117.636 367.569 117.48C367.153 117.324 366.477 117.22 365.541 117.168V116.388C366.399 116.466 367.608 116.505 369.168 116.505C370.338 116.505 371.352 116.466 372.21 116.388L385.977 137.604V120.912C385.977 119.898 385.886 119.144 385.704 118.65C385.548 118.156 385.223 117.805 384.729 117.597C384.235 117.363 383.468 117.22 382.428 117.168V116.388C383.364 116.466 384.69 116.505 386.406 116.505C387.966 116.505 389.175 116.466 390.033 116.388V117.168ZM406.103 115.959C407.247 115.959 408.144 116.089 408.794 116.349C409.47 116.583 410.159 116.934 410.861 117.402C411.433 117.766 411.875 117.948 412.187 117.948C412.421 117.948 412.603 117.818 412.733 117.558C412.863 117.272 412.967 116.83 413.045 116.232H413.942C413.812 117.74 413.747 120.392 413.747 124.188H412.85C412.694 122.082 412.083 120.314 411.017 118.884C409.977 117.428 408.456 116.7 406.454 116.7C405.05 116.7 403.906 117.129 403.022 117.987C402.138 118.819 401.696 119.898 401.696 121.224C401.696 122.212 401.917 123.07 402.359 123.798C402.827 124.526 403.412 125.15 404.114 125.67C404.816 126.19 405.817 126.853 407.117 127.659L408.248 128.361C409.886 129.375 411.173 130.272 412.109 131.052C413.071 131.806 413.838 132.677 414.41 133.665C414.982 134.653 415.268 135.81 415.268 137.136C415.268 139.502 414.488 141.335 412.928 142.635C411.368 143.909 409.392 144.546 407 144.546C405.752 144.546 404.725 144.416 403.919 144.156C403.139 143.896 402.385 143.545 401.657 143.103C401.085 142.739 400.643 142.557 400.331 142.557C400.097 142.557 399.915 142.7 399.785 142.986C399.655 143.246 399.551 143.675 399.473 144.273H398.576C398.68 142.843 398.732 139.723 398.732 134.913H399.629C399.811 137.539 400.461 139.671 401.579 141.309C402.697 142.947 404.413 143.766 406.727 143.766C408.131 143.766 409.327 143.337 410.315 142.479C411.303 141.595 411.797 140.295 411.797 138.579C411.797 137.123 411.303 135.888 410.315 134.874C409.353 133.86 407.819 132.716 405.713 131.442C404.179 130.506 402.931 129.674 401.969 128.946C401.033 128.218 400.266 127.347 399.668 126.333C399.07 125.293 398.771 124.084 398.771 122.706C398.771 120.522 399.473 118.858 400.877 117.714C402.281 116.544 404.023 115.959 406.103 115.959ZM433.444 117.168C432.508 117.22 431.819 117.324 431.377 117.48C430.961 117.636 430.675 117.935 430.519 118.377C430.363 118.819 430.285 119.534 430.285 120.522V139.866C430.285 140.854 430.363 141.569 430.519 142.011C430.675 142.453 430.961 142.752 431.377 142.908C431.819 143.064 432.508 143.168 433.444 143.22V144C432.248 143.922 430.597 143.883 428.491 143.883C426.255 143.883 424.591 143.922 423.499 144V143.22C424.435 143.168 425.111 143.064 425.527 142.908C425.969 142.752 426.268 142.453 426.424 142.011C426.58 141.569 426.658 140.854 426.658 139.866V120.522C426.658 119.534 426.58 118.819 426.424 118.377C426.268 117.935 425.969 117.636 425.527 117.48C425.111 117.324 424.435 117.22 423.499 117.168V116.388C424.591 116.466 426.255 116.505 428.491 116.505C430.571 116.505 432.222 116.466 433.444 116.388V117.168ZM462.845 116.388C462.663 118.234 462.572 119.898 462.572 121.38C462.572 122.68 462.611 123.746 462.689 124.578H461.792C461.584 122.576 461.324 121.094 461.012 120.132C460.7 119.144 460.154 118.429 459.374 117.987C458.594 117.519 457.398 117.285 455.786 117.285H453.68V139.476C453.68 140.568 453.784 141.361 453.992 141.855C454.2 142.349 454.564 142.687 455.084 142.869C455.604 143.051 456.449 143.168 457.619 143.22V144C456.267 143.922 454.356 143.883 451.886 143.883C449.286 143.883 447.362 143.922 446.114 144V143.22C447.284 143.168 448.129 143.051 448.649 142.869C449.169 142.687 449.533 142.349 449.741 141.855C449.949 141.361 450.053 140.568 450.053 139.476V117.285H447.947C446.335 117.285 445.139 117.519 444.359 117.987C443.579 118.429 443.033 119.144 442.721 120.132C442.409 121.094 442.149 122.576 441.941 124.578H441.044C441.122 123.746 441.161 122.68 441.161 121.38C441.161 119.898 441.07 118.234 440.888 116.388C443.046 116.466 446.712 116.505 451.886 116.505C457.034 116.505 460.687 116.466 462.845 116.388ZM480.242 117.168C479.306 117.22 478.617 117.324 478.175 117.48C477.759 117.636 477.473 117.935 477.317 118.377C477.161 118.819 477.083 119.534 477.083 120.522V139.866C477.083 140.854 477.161 141.569 477.317 142.011C477.473 142.453 477.759 142.752 478.175 142.908C478.617 143.064 479.306 143.168 480.242 143.22V144C479.046 143.922 477.395 143.883 475.289 143.883C473.053 143.883 471.389 143.922 470.297 144V143.22C471.233 143.168 471.909 143.064 472.325 142.908C472.767 142.752 473.066 142.453 473.222 142.011C473.378 141.569 473.456 140.854 473.456 139.866V120.522C473.456 119.534 473.378 118.819 473.222 118.377C473.066 117.935 472.767 117.636 472.325 117.48C471.909 117.324 471.233 117.22 470.297 117.168V116.388C471.389 116.466 473.053 116.505 475.289 116.505C477.369 116.505 479.02 116.466 480.242 116.388V117.168ZM500.72 115.842C503.19 115.842 505.348 116.401 507.194 117.519C509.066 118.637 510.509 120.262 511.523 122.394C512.563 124.5 513.083 127.022 513.083 129.96C513.083 132.82 512.55 135.355 511.484 137.565C510.444 139.775 508.975 141.491 507.077 142.713C505.205 143.935 503.073 144.546 500.681 144.546C498.211 144.546 496.04 143.987 494.168 142.869C492.322 141.751 490.879 140.139 489.839 138.033C488.825 135.901 488.318 133.366 488.318 130.428C488.318 127.568 488.838 125.033 489.878 122.823C490.944 120.613 492.413 118.897 494.285 117.675C496.183 116.453 498.328 115.842 500.72 115.842ZM500.564 116.544C498.9 116.544 497.431 117.129 496.157 118.299C494.909 119.443 493.934 121.055 493.232 123.135C492.556 125.215 492.218 127.594 492.218 130.272C492.218 132.976 492.595 135.355 493.349 137.409C494.129 139.463 495.169 141.049 496.469 142.167C497.769 143.285 499.225 143.844 500.837 143.844C502.501 143.844 503.957 143.272 505.205 142.128C506.479 140.958 507.454 139.333 508.13 137.253C508.832 135.173 509.183 132.794 509.183 130.116C509.183 127.412 508.793 125.033 508.013 122.979C507.259 120.925 506.232 119.339 504.932 118.221C503.632 117.103 502.176 116.544 500.564 116.544ZM545.663 117.168C544.753 117.22 544.077 117.363 543.635 117.597C543.193 117.805 542.894 118.169 542.738 118.689C542.582 119.183 542.504 119.924 542.504 120.912V144.195H541.607L525.227 118.884V139.476C525.227 140.49 525.305 141.244 525.461 141.738C525.643 142.232 525.981 142.596 526.475 142.83C526.969 143.038 527.736 143.168 528.776 143.22V144C527.84 143.922 526.514 143.883 524.798 143.883C523.238 143.883 522.029 143.922 521.171 144V143.22C522.081 143.168 522.757 143.038 523.199 142.83C523.641 142.596 523.94 142.232 524.096 141.738C524.252 141.218 524.33 140.464 524.33 139.476V120.522C524.33 119.534 524.252 118.819 524.096 118.377C523.94 117.935 523.641 117.636 523.199 117.48C522.783 117.324 522.107 117.22 521.171 117.168V116.388C522.029 116.466 523.238 116.505 524.798 116.505C525.968 116.505 526.982 116.466 527.84 116.388L541.607 137.604V120.912C541.607 119.898 541.516 119.144 541.334 118.65C541.178 118.156 540.853 117.805 540.359 117.597C539.865 117.363 539.098 117.22 538.058 117.168V116.388C538.994 116.466 540.32 116.505 542.036 116.505C543.596 116.505 544.805 116.466 545.663 116.388V117.168ZM580.61 115.842C582.17 115.842 583.496 116.063 584.588 116.505C585.68 116.947 586.746 117.571 587.786 118.377C588.072 118.611 588.319 118.728 588.527 118.728C589.047 118.728 589.385 117.948 589.541 116.388H590.438C590.334 118.078 590.282 121.068 590.282 125.358H589.385C589.099 123.668 588.839 122.459 588.605 121.731C588.371 120.977 587.981 120.262 587.435 119.586C586.655 118.572 585.654 117.818 584.432 117.324C583.236 116.804 581.936 116.544 580.532 116.544C578.842 116.544 577.36 117.103 576.086 118.221C574.838 119.339 573.863 120.938 573.161 123.018C572.459 125.072 572.108 127.49 572.108 130.272C572.108 133.106 572.485 135.537 573.239 137.565C573.993 139.593 575.033 141.14 576.359 142.206C577.711 143.246 579.232 143.766 580.922 143.766C582.222 143.766 583.483 143.519 584.705 143.025C585.927 142.531 586.889 141.79 587.591 140.802C588.111 140.074 588.488 139.294 588.722 138.462C588.956 137.63 589.177 136.356 589.385 134.64H590.282C590.282 139.112 590.334 142.232 590.438 144H589.541C589.463 143.168 589.346 142.583 589.19 142.245C589.06 141.881 588.865 141.699 588.605 141.699C588.397 141.699 588.124 141.803 587.786 142.011C586.616 142.843 585.498 143.48 584.432 143.922C583.366 144.338 582.079 144.546 580.571 144.546C578.101 144.546 575.93 143.987 574.058 142.869C572.212 141.751 570.769 140.139 569.729 138.033C568.715 135.901 568.208 133.366 568.208 130.428C568.208 127.568 568.728 125.033 569.768 122.823C570.834 120.613 572.303 118.897 574.175 117.675C576.073 116.453 578.218 115.842 580.61 115.842ZM612.141 115.842C614.611 115.842 616.769 116.401 618.615 117.519C620.487 118.637 621.93 120.262 622.944 122.394C623.984 124.5 624.504 127.022 624.504 129.96C624.504 132.82 623.971 135.355 622.905 137.565C621.865 139.775 620.396 141.491 618.498 142.713C616.626 143.935 614.494 144.546 612.102 144.546C609.632 144.546 607.461 143.987 605.589 142.869C603.743 141.751 602.3 140.139 601.26 138.033C600.246 135.901 599.739 133.366 599.739 130.428C599.739 127.568 600.259 125.033 601.299 122.823C602.365 120.613 603.834 118.897 605.706 117.675C607.604 116.453 609.749 115.842 612.141 115.842ZM611.985 116.544C610.321 116.544 608.852 117.129 607.578 118.299C606.33 119.443 605.355 121.055 604.653 123.135C603.977 125.215 603.639 127.594 603.639 130.272C603.639 132.976 604.016 135.355 604.77 137.409C605.55 139.463 606.59 141.049 607.89 142.167C609.19 143.285 610.646 143.844 612.258 143.844C613.922 143.844 615.378 143.272 616.626 142.128C617.9 140.958 618.875 139.333 619.551 137.253C620.253 135.173 620.604 132.794 620.604 130.116C620.604 127.412 620.214 125.033 619.434 122.979C618.68 120.925 617.653 119.339 616.353 118.221C615.053 117.103 613.597 116.544 611.985 116.544ZM652.763 140.724C653.387 142.336 654.284 143.168 655.454 143.22V144C654.414 143.922 653.023 143.883 651.281 143.883C649.045 143.883 647.381 143.922 646.289 144V143.22C647.277 143.168 647.979 143.051 648.395 142.869C648.837 142.661 649.058 142.297 649.058 141.777C649.058 141.335 648.902 140.724 648.59 139.944L646.211 133.548H636.773L635.174 137.682C634.654 139.086 634.394 140.152 634.394 140.88C634.394 141.686 634.667 142.271 635.213 142.635C635.785 142.999 636.643 143.194 637.787 143.22V144C636.305 143.922 634.81 143.883 633.302 143.883C632.132 143.883 631.157 143.922 630.377 144V143.22C631.677 142.908 632.704 141.777 633.458 139.827L642.623 116.193H643.247L652.763 140.724ZM645.899 132.768L641.531 121.107L637.085 132.768H645.899ZM673.983 115.842C675.543 115.842 676.869 116.063 677.961 116.505C679.053 116.947 680.119 117.571 681.159 118.377C681.445 118.611 681.692 118.728 681.9 118.728C682.42 118.728 682.758 117.948 682.914 116.388H683.811C683.707 118.078 683.655 121.068 683.655 125.358H682.758C682.472 123.668 682.212 122.459 681.978 121.731C681.744 120.977 681.354 120.262 680.808 119.586C680.028 118.572 679.027 117.818 677.805 117.324C676.609 116.804 675.309 116.544 673.905 116.544C672.215 116.544 670.733 117.103 669.459 118.221C668.211 119.339 667.236 120.938 666.534 123.018C665.832 125.072 665.481 127.49 665.481 130.272C665.481 133.106 665.858 135.537 666.612 137.565C667.366 139.593 668.406 141.14 669.732 142.206C671.084 143.246 672.605 143.766 674.295 143.766C675.595 143.766 676.856 143.519 678.078 143.025C679.3 142.531 680.262 141.79 680.964 140.802C681.484 140.074 681.861 139.294 682.095 138.462C682.329 137.63 682.55 136.356 682.758 134.64H683.655C683.655 139.112 683.707 142.232 683.811 144H682.914C682.836 143.168 682.719 142.583 682.563 142.245C682.433 141.881 682.238 141.699 681.978 141.699C681.77 141.699 681.497 141.803 681.159 142.011C679.989 142.843 678.871 143.48 677.805 143.922C676.739 144.338 675.452 144.546 673.944 144.546C671.474 144.546 669.303 143.987 667.431 142.869C665.585 141.751 664.142 140.139 663.102 138.033C662.088 135.901 661.581 133.366 661.581 130.428C661.581 127.568 662.101 125.033 663.141 122.823C664.207 120.613 665.676 118.897 667.548 117.675C669.446 116.453 671.591 115.842 673.983 115.842ZM718.93 117.168C717.994 117.22 717.305 117.324 716.863 117.48C716.447 117.636 716.161 117.935 716.005 118.377C715.849 118.819 715.771 119.534 715.771 120.522V139.866C715.771 140.854 715.849 141.569 716.005 142.011C716.161 142.453 716.447 142.752 716.863 142.908C717.305 143.064 717.994 143.168 718.93 143.22V144C717.838 143.922 716.174 143.883 713.938 143.883C711.832 143.883 710.181 143.922 708.985 144V143.22C709.921 143.168 710.597 143.064 711.013 142.908C711.455 142.752 711.754 142.453 711.91 142.011C712.066 141.569 712.144 140.854 712.144 139.866V130.506H699.469V139.866C699.469 140.854 699.547 141.569 699.703 142.011C699.859 142.453 700.145 142.752 700.561 142.908C701.003 143.064 701.692 143.168 702.628 143.22V144C701.432 143.922 699.781 143.883 697.675 143.883C695.439 143.883 693.775 143.922 692.683 144V143.22C693.619 143.168 694.295 143.064 694.711 142.908C695.153 142.752 695.452 142.453 695.608 142.011C695.764 141.569 695.842 140.854 695.842 139.866V120.522C695.842 119.534 695.764 118.819 695.608 118.377C695.452 117.935 695.153 117.636 694.711 117.48C694.295 117.324 693.619 117.22 692.683 117.168V116.388C693.775 116.466 695.439 116.505 697.675 116.505C699.755 116.505 701.406 116.466 702.628 116.388V117.168C701.692 117.22 701.003 117.324 700.561 117.48C700.145 117.636 699.859 117.935 699.703 118.377C699.547 118.819 699.469 119.534 699.469 120.522V129.726H712.144V120.522C712.144 119.534 712.066 118.819 711.91 118.377C711.754 117.935 711.455 117.636 711.013 117.48C710.597 117.324 709.921 117.22 708.985 117.168V116.388C710.181 116.466 711.832 116.505 713.938 116.505C716.174 116.505 717.838 116.466 718.93 116.388V117.168Z" fill="black"/>
</svg>
